<svg width="1024" height="514" viewBox="0 0 1024 514" fill="none" xmlns="http://www.w3.org/2000/svg">
<path d="M770 2V42M750 22H790M755.858 7.85785L784.142 36.1421M784.142 7.85785L755.858 36.1421" stroke="#FEFEFE" stroke-width="3" stroke-linecap="round"/>
<path d="M1048.94 106.356C1030.38 99.4968 975.89 95.8653 924.228 134.198C872.566 172.531 896.379 207.232 941.583 231.442C986.787 255.652 1072.76 266.95 1106.26 207.232C1139.76 147.514 1067.51 113.216 1048.94 106.356Z" fill="#F7AF1C"/>
<circle r="17.5" transform="matrix(-1 0 0 1 905 135)" stroke="#0042C6" stroke-width="3" stroke-linejoin="round" stroke-dasharray="10 5"/>
<path d="M824.626 241.541C825.454 240.106 827.289 239.614 828.724 240.443L847.776 251.443C849.211 252.271 849.703 254.106 848.874 255.541L837.374 275.459C836.546 276.894 834.711 277.386 833.276 276.557L814.224 265.557C812.789 264.729 812.297 262.894 813.126 261.459L824.626 241.541Z" fill="#35C69B"/>
<path d="M-14.0968 410.272L-74.779 487.002C-76.7381 489.479 -77.0565 492.877 -75.5916 495.675L-67.176 511.749C-65.9322 514.125 -63.5808 515.72 -60.9134 515.996L67.2656 529.283C71.2332 529.694 74.8975 527.12 75.856 523.248L86.4975 480.263C86.827 478.932 86.8089 477.539 86.445 476.217L75.3561 435.939C74.6268 433.29 72.5892 431.2 69.9594 430.405L-5.50559 407.577C-8.65099 406.625 -12.0583 407.694 -14.0968 410.272Z" fill="#0042C6"/>
<path d="M-7.57163 400.562C-8.36555 400.326 -9.20095 400.778 -9.43753 401.572C-9.67412 402.366 -9.2223 403.201 -8.42837 403.438L-7.57163 400.562ZM85.5554 462.404C85.7783 463.202 86.6059 463.668 87.4037 463.445C88.2016 463.222 88.6676 462.394 88.4446 461.596L85.5554 462.404ZM73.1073 426.169L73.5357 424.732L73.1073 426.169ZM78.5274 431.683L77.0828 432.087L78.5274 431.683ZM-8.42837 403.438L72.6789 427.607L73.5357 424.732L-7.57163 400.562L-8.42837 403.438ZM77.0828 432.087L85.5554 462.404L88.4446 461.596L79.9721 431.279L77.0828 432.087ZM72.6789 427.607C74.8189 428.245 76.4818 429.936 77.0828 432.087L79.9721 431.279C79.0937 428.136 76.6634 425.664 73.5357 424.732L72.6789 427.607Z" fill="#FEFEFE"/>
<path d="M981.033 291.102C985.928 288.293 1000.29 286.807 1013.91 302.5C1027.53 318.193 1021.25 332.4 1009.34 342.311C997.42 352.223 974.755 356.848 965.924 332.4C957.092 307.951 976.139 293.91 981.033 291.102Z" fill="#0042C6"/>
<path d="M979.661 336.345C979.966 334.445 982.213 333.587 983.707 334.801L1007.88 354.45C1009.37 355.664 1008.99 358.04 1007.19 358.726L978.09 369.835C976.293 370.521 974.426 369.004 974.73 367.104L979.661 336.345Z" stroke="#FEFEFE" stroke-width="3" stroke-linecap="round" stroke-linejoin="round"/>
</svg>
