<svg width="1024" height="503" viewBox="0 0 1024 503" fill="none" xmlns="http://www.w3.org/2000/svg">
<path d="M916.048 600.388L800.361 413.7C798.196 410.207 799.03 405.641 802.291 403.14L1042.61 218.749C1048.88 213.942 1057.58 220.157 1055.06 227.643L930.431 598.721C928.275 605.141 919.615 606.145 916.048 600.388Z" fill="#F7AF1C"/>
<path d="M939.449 119.391C945.764 103.523 997.028 96.0639 1021.87 94.3179C1026.78 95.2423 1036.52 99.8235 1036.12 110.754C1035.64 124.417 1032.59 136.911 1009.63 159.413C986.661 181.915 970.863 170.003 952.771 166.6C934.678 163.196 931.555 139.226 939.449 119.391Z" fill="#35C69B"/>
<path d="M101.728 186.55C56.1928 172.36 14.9363 259.112 0 304.261V503H260.376C263.068 491.175 276.524 466.558 308.818 462.688C349.187 457.85 363.719 418.748 321.736 397.785C279.753 376.823 316.892 359.086 268.45 346.186C220.008 333.286 200.631 365.536 153.804 359.086C106.976 352.636 158.648 204.287 101.728 186.55Z" fill="#35C69B"/>
<path d="M950.341 284L794.161 401.341C790.862 403.82 789.989 408.401 792.146 411.919L828.37 471" stroke="#FEFEFE" stroke-width="3" stroke-linecap="round" stroke-linejoin="round"/>
<path d="M436.033 430.102C440.928 427.293 455.292 425.807 468.912 441.5C482.532 457.193 476.254 471.4 464.337 481.311C452.419 491.223 429.755 495.848 420.923 471.4C412.092 446.951 431.138 432.91 436.033 430.102Z" fill="#E55511"/>
<path d="M858.428 175.562C857.634 175.326 856.799 175.778 856.562 176.572C856.326 177.366 856.778 178.201 857.572 178.438L858.428 175.562ZM951.555 237.404C951.778 238.202 952.606 238.668 953.404 238.445C954.202 238.222 954.668 237.394 954.445 236.596L951.555 237.404ZM939.107 201.169L939.536 199.732L939.107 201.169ZM944.527 206.683L943.083 207.087L944.527 206.683ZM857.572 178.438L938.679 202.607L939.536 199.732L858.428 175.562L857.572 178.438ZM943.083 207.087L951.555 237.404L954.445 236.596L945.972 206.279L943.083 207.087ZM938.679 202.607C940.819 203.245 942.482 204.936 943.083 207.087L945.972 206.279C945.094 203.136 942.663 200.664 939.536 199.732L938.679 202.607Z" fill="#FEFEFE"/>
<path d="M429.707 411.801L453.879 431.45C455.372 432.664 454.991 435.04 453.194 435.726L424.09 446.835C422.293 447.521 420.426 446.004 420.73 444.104L425.661 413.345C425.966 411.445 428.213 410.587 429.707 411.801Z" stroke="#FEFEFE" stroke-width="3" stroke-linecap="round" stroke-linejoin="round"/>
<path d="M851.903 185.272L791.221 262.002C789.262 264.479 788.944 267.877 790.408 270.675L798.824 286.749C800.068 289.125 802.419 290.72 805.087 290.996L933.266 304.283C937.233 304.694 940.897 302.12 941.856 298.248L952.497 255.263C952.827 253.932 952.809 252.539 952.445 251.217L941.356 210.939C940.627 208.29 938.589 206.2 935.959 205.405L860.494 182.577C857.349 181.625 853.942 182.694 851.903 185.272Z" fill="#E55511"/>
<path d="M895.515 297.894C894.864 299.465 893.91 300.893 892.707 302.096L883.902 310.902C883.706 311.097 883.39 311.097 883.195 310.902L865.583 293.291C865.388 293.095 865.388 292.779 865.583 292.583L874.389 283.778C875.592 282.575 877.02 281.621 878.591 280.97C880.163 280.319 881.847 279.984 883.548 279.984C885.249 279.984 886.934 280.319 888.505 280.97C890.077 281.621 891.505 282.575 892.707 283.778C893.91 284.981 894.864 286.409 895.515 287.98C896.166 289.552 896.501 291.236 896.501 292.937C896.501 294.638 896.166 296.322 895.515 297.894Z" stroke="#FEFEFE" stroke-width="3" stroke-linecap="round" stroke-linejoin="round"/>
<path d="M43.943 204.859C25.377 197.999 -29.1102 194.368 -80.7722 232.7C-132.434 271.033 -108.621 305.734 -63.417 329.945C-18.2128 354.155 67.7559 365.453 101.255 305.734C134.755 246.016 62.509 211.718 43.943 204.859Z" fill="#F7AF1C"/>
<circle cx="100" cy="233.502" r="17.5" stroke="#FEFEFE" stroke-width="3" stroke-linejoin="round" stroke-dasharray="10 5"/>
<path d="M701 419V459M681 439H721M686.858 424.858L715.142 453.142M715.142 424.858L686.858 453.142" stroke="#FEFEFE" stroke-width="3" stroke-linecap="round"/>
<path d="M152.061 533.82C139.043 521.767 175.072 461.68 232.534 399.611C289.997 337.543 347.133 296.997 360.152 309.049C369.792 317.974 352.538 353.237 319.603 396.14" stroke="#FEFEFE" stroke-width="3" stroke-linecap="round"/>
<path d="M70 398.002H92C92.8284 398.002 93.5 398.674 93.5 399.502V422.502C93.5 423.331 92.8284 424.002 92 424.002H70C69.1716 424.002 68.5 423.331 68.5 422.502V399.502C68.5 398.674 69.1716 398.002 70 398.002Z" stroke="#FEFEFE" stroke-width="3"/>
<path d="M902.852 6.30571L890.24 36.7864M881.306 15.2404L911.786 27.8518" stroke="#FEFEFE" stroke-width="3" stroke-linecap="round"/>
<path d="M179.91 174.489L147.242 193.35" stroke="#FEFEFE" stroke-width="3" stroke-linecap="round"/>
<rect x="57.1754" y="25.3259" width="84.2994" height="44.8986" rx="8" transform="rotate(15 57.1754 25.3259)" fill="#E55511"/>
<path d="M185.6 214.97H147.6" stroke="#FEFEFE" stroke-width="3" stroke-linecap="round"/>
<path d="M146.861 147L128 179.668" stroke="#FEFEFE" stroke-width="3" stroke-linecap="round"/>
<path d="M45.4122 29.7898L81.8785 29.4683M47.7747 38.792L79.5161 20.4661M47.9354 20.7445L79.3554 38.5136" stroke="#FEFEFE" stroke-width="2" stroke-linecap="round"/>
<path d="M662 346V346C662 332.818 673.695 322.704 686.739 324.604L699.875 326.518C719.063 329.314 735.823 313.444 734.078 294.132L731.552 266.174C730.718 256.95 737.982 249 747.244 249V249C755.946 249 763 241.946 763 233.244V227" stroke="#FEFEFE" stroke-width="3" stroke-linecap="round" stroke-linejoin="round"/>
</svg>
