<svg width="427" height="184" viewBox="0 0 427 184" fill="none" xmlns="http://www.w3.org/2000/svg">
<rect x="1" y="1" width="425" height="182" rx="7" fill="#0042C6"/>
<path d="M115.432 45.336C113.768 45.336 112.288 44.976 110.992 44.256C109.696 43.536 108.68 42.52 107.944 41.208C107.224 39.88 106.864 38.344 106.864 36.6C106.864 34.856 107.232 33.328 107.968 32.016C108.72 30.688 109.752 29.664 111.064 28.944C112.376 28.224 113.864 27.864 115.528 27.864C116.36 27.864 117.152 27.952 117.904 28.128C118.656 28.304 119.328 28.544 119.92 28.848L119.632 31.488C118.24 30.832 116.864 30.504 115.504 30.504C114.32 30.504 113.304 30.768 112.456 31.296C111.624 31.808 110.992 32.528 110.56 33.456C110.128 34.368 109.912 35.416 109.912 36.6C109.912 37.784 110.12 38.84 110.536 39.768C110.968 40.68 111.6 41.4 112.432 41.928C113.264 42.44 114.272 42.696 115.456 42.696C116.208 42.696 116.912 42.616 117.568 42.456C118.24 42.296 118.928 42.056 119.632 41.736L119.92 44.352C118.576 45.008 117.08 45.336 115.432 45.336ZM127.182 45.24C125.95 45.24 124.878 44.968 123.965 44.424C123.054 43.864 122.35 43.112 121.854 42.168C121.374 41.224 121.134 40.184 121.134 39.048C121.134 37.912 121.374 36.872 121.854 35.928C122.35 34.984 123.054 34.24 123.965 33.696C124.878 33.136 125.95 32.856 127.182 32.856C128.43 32.856 129.51 33.136 130.422 33.696C131.334 34.24 132.03 34.984 132.51 35.928C132.99 36.872 133.23 37.912 133.23 39.048C133.23 40.184 132.99 41.224 132.51 42.168C132.03 43.112 131.334 43.864 130.422 44.424C129.51 44.968 128.43 45.24 127.182 45.24ZM127.182 42.984C128.222 42.984 129.03 42.632 129.606 41.928C130.198 41.224 130.494 40.264 130.494 39.048C130.494 37.848 130.198 36.896 129.606 36.192C129.03 35.472 128.222 35.112 127.182 35.112C126.142 35.112 125.334 35.472 124.758 36.192C124.182 36.896 123.894 37.848 123.894 39.048C123.894 40.264 124.182 41.224 124.758 41.928C125.334 42.632 126.142 42.984 127.182 42.984ZM146.129 27V45H143.657L143.537 43.992C142.625 44.824 141.497 45.24 140.153 45.24C139.049 45.24 138.081 44.968 137.249 44.424C136.417 43.864 135.777 43.12 135.329 42.192C134.881 41.248 134.657 40.208 134.657 39.072C134.657 37.952 134.873 36.92 135.305 35.976C135.753 35.032 136.385 34.28 137.201 33.72C138.033 33.16 139.017 32.88 140.153 32.88C141.449 32.88 142.545 33.264 143.441 34.032V27H146.129ZM140.561 42.984C141.505 42.984 142.249 42.64 142.793 41.952C143.353 41.264 143.633 40.304 143.633 39.072C143.633 37.856 143.353 36.896 142.793 36.192C142.233 35.488 141.489 35.136 140.561 35.136C139.585 35.136 138.817 35.504 138.257 36.24C137.697 36.96 137.417 37.904 137.417 39.072C137.417 40.224 137.697 41.168 138.257 41.904C138.817 42.624 139.585 42.984 140.561 42.984ZM154.683 45.24C153.307 45.24 152.131 44.96 151.155 44.4C150.195 43.84 149.467 43.088 148.971 42.144C148.475 41.184 148.227 40.12 148.227 38.952C148.227 37.832 148.451 36.816 148.899 35.904C149.363 34.976 150.035 34.24 150.915 33.696C151.811 33.152 152.859 32.88 154.059 32.88C155.115 32.88 156.027 33.104 156.795 33.552C157.579 33.984 158.171 34.584 158.571 35.352C158.987 36.12 159.195 37 159.195 37.992C159.195 38.504 159.139 38.992 159.027 39.456H151.011C151.155 40.688 151.579 41.584 152.283 42.144C153.003 42.704 153.891 42.984 154.947 42.984C156.243 42.984 157.419 42.688 158.475 42.096L158.667 44.328C157.451 44.936 156.123 45.24 154.683 45.24ZM156.459 37.632C156.459 36.928 156.259 36.336 155.859 35.856C155.459 35.376 154.851 35.136 154.035 35.136C152.483 35.136 151.507 35.968 151.107 37.632H156.459ZM167.434 35.256H165.586L165.874 33.096H167.434V30.456C167.434 29.384 167.738 28.544 168.346 27.936C168.954 27.312 169.818 27 170.938 27C171.658 27 172.298 27.08 172.858 27.24L172.57 29.448C172.234 29.336 171.89 29.28 171.538 29.28C170.578 29.28 170.098 29.8 170.098 30.84V33.096H172.93V35.256H170.098V45H167.434V35.256ZM179.916 45.24C178.684 45.24 177.612 44.968 176.7 44.424C175.788 43.864 175.084 43.112 174.588 42.168C174.108 41.224 173.868 40.184 173.868 39.048C173.868 37.912 174.108 36.872 174.588 35.928C175.084 34.984 175.788 34.24 176.7 33.696C177.612 33.136 178.684 32.856 179.916 32.856C181.164 32.856 182.244 33.136 183.156 33.696C184.068 34.24 184.764 34.984 185.244 35.928C185.724 36.872 185.964 37.912 185.964 39.048C185.964 40.184 185.724 41.224 185.244 42.168C184.764 43.112 184.068 43.864 183.156 44.424C182.244 44.968 181.164 45.24 179.916 45.24ZM179.916 42.984C180.956 42.984 181.764 42.632 182.34 41.928C182.932 41.224 183.228 40.264 183.228 39.048C183.228 37.848 182.932 36.896 182.34 36.192C181.764 35.472 180.956 35.112 179.916 35.112C178.876 35.112 178.068 35.472 177.492 36.192C176.916 36.896 176.628 37.848 176.628 39.048C176.628 40.264 176.916 41.224 177.492 41.928C178.068 42.632 178.876 42.984 179.916 42.984ZM188.111 33.096H190.535L190.679 34.608C191.111 34.08 191.607 33.656 192.167 33.336C192.727 33.016 193.311 32.856 193.919 32.856C194.079 32.856 194.255 32.872 194.447 32.904L194.231 35.64C193.975 35.56 193.671 35.52 193.319 35.52C192.791 35.52 192.295 35.648 191.831 35.904C191.367 36.144 191.039 36.432 190.847 36.768V45H188.111V33.096ZM209.155 45.336C207.475 45.336 205.995 44.976 204.715 44.256C203.451 43.536 202.475 42.52 201.787 41.208C201.099 39.88 200.755 38.336 200.755 36.576C200.755 34.848 201.123 33.328 201.859 32.016C202.611 30.688 203.651 29.664 204.979 28.944C206.307 28.224 207.819 27.864 209.515 27.864C210.379 27.864 211.219 27.952 212.035 28.128C212.851 28.304 213.563 28.544 214.171 28.848L213.883 31.416C212.443 30.808 210.995 30.504 209.539 30.504C207.651 30.504 206.219 31.064 205.243 32.184C204.283 33.288 203.803 34.744 203.803 36.552C203.803 38.408 204.283 39.896 205.243 41.016C206.219 42.136 207.627 42.696 209.467 42.696C210.299 42.696 211.123 42.592 211.939 42.384V38.952H209.515V36.576H214.723V44.064C214.067 44.432 213.251 44.736 212.275 44.976C211.315 45.216 210.275 45.336 209.155 45.336ZM222.525 45.24C221.293 45.24 220.221 44.968 219.309 44.424C218.397 43.864 217.693 43.112 217.197 42.168C216.717 41.224 216.477 40.184 216.477 39.048C216.477 37.912 216.717 36.872 217.197 35.928C217.693 34.984 218.397 34.24 219.309 33.696C220.221 33.136 221.293 32.856 222.525 32.856C223.773 32.856 224.853 33.136 225.765 33.696C226.677 34.24 227.373 34.984 227.853 35.928C228.333 36.872 228.573 37.912 228.573 39.048C228.573 40.184 228.333 41.224 227.853 42.168C227.373 43.112 226.677 43.864 225.765 44.424C224.853 44.968 223.773 45.24 222.525 45.24ZM222.525 42.984C223.565 42.984 224.373 42.632 224.949 41.928C225.541 41.224 225.837 40.264 225.837 39.048C225.837 37.848 225.541 36.896 224.949 36.192C224.373 35.472 223.565 35.112 222.525 35.112C221.485 35.112 220.677 35.472 220.101 36.192C219.525 36.896 219.237 37.848 219.237 39.048C219.237 40.264 219.525 41.224 220.101 41.928C220.677 42.632 221.485 42.984 222.525 42.984ZM236.049 45.24C234.817 45.24 233.745 44.968 232.833 44.424C231.921 43.864 231.217 43.112 230.721 42.168C230.241 41.224 230.001 40.184 230.001 39.048C230.001 37.912 230.241 36.872 230.721 35.928C231.217 34.984 231.921 34.24 232.833 33.696C233.745 33.136 234.817 32.856 236.049 32.856C237.297 32.856 238.377 33.136 239.289 33.696C240.201 34.24 240.897 34.984 241.377 35.928C241.857 36.872 242.097 37.912 242.097 39.048C242.097 40.184 241.857 41.224 241.377 42.168C240.897 43.112 240.201 43.864 239.289 44.424C238.377 44.968 237.297 45.24 236.049 45.24ZM236.049 42.984C237.089 42.984 237.897 42.632 238.473 41.928C239.065 41.224 239.361 40.264 239.361 39.048C239.361 37.848 239.065 36.896 238.473 36.192C237.897 35.472 237.089 35.112 236.049 35.112C235.009 35.112 234.201 35.472 233.625 36.192C233.049 36.896 232.761 37.848 232.761 39.048C232.761 40.264 233.049 41.224 233.625 41.928C234.201 42.632 235.009 42.984 236.049 42.984ZM254.996 27V45H252.524L252.404 43.992C251.492 44.824 250.364 45.24 249.02 45.24C247.916 45.24 246.948 44.968 246.116 44.424C245.284 43.864 244.644 43.12 244.196 42.192C243.748 41.248 243.524 40.208 243.524 39.072C243.524 37.952 243.74 36.92 244.172 35.976C244.62 35.032 245.252 34.28 246.068 33.72C246.9 33.16 247.884 32.88 249.02 32.88C250.316 32.88 251.412 33.264 252.308 34.032V27H254.996ZM249.428 42.984C250.372 42.984 251.116 42.64 251.66 41.952C252.22 41.264 252.5 40.304 252.5 39.072C252.5 37.856 252.22 36.896 251.66 36.192C251.1 35.488 250.356 35.136 249.428 35.136C248.452 35.136 247.684 35.504 247.124 36.24C246.564 36.96 246.284 37.904 246.284 39.072C246.284 40.224 246.564 41.168 247.124 41.904C247.684 42.624 248.452 42.984 249.428 42.984ZM267.429 38.136C268.325 36.776 268.949 35.72 269.301 34.968C269.669 34.216 269.853 33.512 269.853 32.856C269.853 32.12 269.645 31.536 269.229 31.104C268.813 30.672 268.237 30.456 267.501 30.456C266.109 30.456 264.749 31.12 263.421 32.448L263.085 29.616C264.541 28.448 266.173 27.864 267.981 27.864C268.957 27.864 269.789 28.072 270.477 28.488C271.181 28.888 271.709 29.432 272.061 30.12C272.413 30.808 272.589 31.576 272.589 32.424C272.589 33.4 272.381 34.376 271.965 35.352C271.565 36.312 270.861 37.56 269.853 39.096L267.669 42.408H273.189V45H262.965L267.429 38.136ZM282.893 45.336C281.469 45.336 280.221 44.968 279.149 44.232C278.093 43.48 277.269 42.432 276.677 41.088C276.101 39.744 275.813 38.2 275.813 36.456C275.813 34.776 276.109 33.288 276.701 31.992C277.293 30.68 278.125 29.664 279.197 28.944C280.269 28.224 281.501 27.864 282.893 27.864C284.301 27.864 285.541 28.224 286.613 28.944C287.685 29.664 288.509 30.672 289.085 31.968C289.677 33.264 289.973 34.76 289.973 36.456C289.973 38.2 289.677 39.744 289.085 41.088C288.509 42.432 287.685 43.48 286.613 44.232C285.557 44.968 284.317 45.336 282.893 45.336ZM282.893 42.84C284.205 42.84 285.237 42.304 285.989 41.232C286.741 40.16 287.117 38.568 287.117 36.456C287.117 34.456 286.733 32.936 285.965 31.896C285.197 30.856 284.173 30.336 282.893 30.336C281.613 30.336 280.581 30.856 279.797 31.896C279.029 32.936 278.645 34.456 278.645 36.456C278.645 38.552 279.021 40.144 279.773 41.232C280.541 42.304 281.581 42.84 282.893 42.84ZM296.96 38.136C297.856 36.776 298.48 35.72 298.832 34.968C299.2 34.216 299.384 33.512 299.384 32.856C299.384 32.12 299.176 31.536 298.76 31.104C298.344 30.672 297.768 30.456 297.032 30.456C295.64 30.456 294.28 31.12 292.952 32.448L292.616 29.616C294.072 28.448 295.704 27.864 297.512 27.864C298.488 27.864 299.32 28.072 300.008 28.488C300.712 28.888 301.24 29.432 301.592 30.12C301.944 30.808 302.12 31.576 302.12 32.424C302.12 33.4 301.912 34.376 301.496 35.352C301.096 36.312 300.392 37.56 299.384 39.096L297.2 42.408H302.72V45H292.496L296.96 38.136ZM312.425 45.336C311.001 45.336 309.753 44.968 308.681 44.232C307.625 43.48 306.801 42.432 306.209 41.088C305.633 39.744 305.345 38.2 305.345 36.456C305.345 34.776 305.641 33.288 306.233 31.992C306.825 30.68 307.657 29.664 308.729 28.944C309.801 28.224 311.033 27.864 312.425 27.864C313.833 27.864 315.073 28.224 316.145 28.944C317.217 29.664 318.041 30.672 318.617 31.968C319.209 33.264 319.505 34.76 319.505 36.456C319.505 38.2 319.209 39.744 318.617 41.088C318.041 42.432 317.217 43.48 316.145 44.232C315.089 44.968 313.849 45.336 312.425 45.336ZM312.425 42.84C313.737 42.84 314.769 42.304 315.521 41.232C316.273 40.16 316.649 38.568 316.649 36.456C316.649 34.456 316.265 32.936 315.497 31.896C314.729 30.856 313.705 30.336 312.425 30.336C311.145 30.336 310.113 30.856 309.329 31.896C308.561 32.936 308.177 34.456 308.177 36.456C308.177 38.552 308.553 40.144 309.305 41.232C310.073 42.304 311.113 42.84 312.425 42.84Z" fill="#FEFEFE"/>
<path d="M47.684 106.316C46.676 106.988 45.62 107.42 44.516 107.612L44.12 103.724C44.912 103.556 45.8 103.076 46.784 102.284C47.768 101.468 48.428 100.64 48.764 99.8H52.292V125H47.684V106.316ZM68.4971 125.504C66.3851 125.504 64.5251 124.952 62.9171 123.848C61.3331 122.744 60.0971 121.184 59.2091 119.168C58.3211 117.152 57.8771 114.824 57.8771 112.184C57.8771 109.664 58.3211 107.432 59.2091 105.488C60.0971 103.52 61.3451 101.996 62.9531 100.916C64.5611 99.836 66.4091 99.296 68.4971 99.296C70.6091 99.296 72.4691 99.848 74.0771 100.952C75.6851 102.032 76.9211 103.544 77.7851 105.488C78.6731 107.432 79.1171 109.664 79.1171 112.184C79.1171 114.824 78.6731 117.152 77.7851 119.168C76.9211 121.184 75.6851 122.744 74.0771 123.848C72.4691 124.952 70.6091 125.504 68.4971 125.504ZM68.4971 121.364C70.3211 121.364 71.7731 120.608 72.8531 119.096C73.9571 117.584 74.5091 115.28 74.5091 112.184C74.5091 109.304 73.9571 107.12 72.8531 105.632C71.7491 104.12 70.2971 103.364 68.4971 103.364C66.6971 103.364 65.2451 104.12 64.1411 105.632C63.0371 107.12 62.4851 109.304 62.4851 112.184C62.4851 115.256 63.0251 117.56 64.1051 119.096C65.2091 120.608 66.6731 121.364 68.4971 121.364ZM101.691 115.496V119.24H98.451V125H94.023V119.24H81.459L95.319 99.8H98.451V115.496H101.691ZM94.023 115.496V107.756L88.587 115.496H94.023ZM119.478 111.284C120.678 111.932 121.614 112.82 122.286 113.948C122.958 115.076 123.294 116.348 123.294 117.764C123.294 119.276 122.934 120.62 122.214 121.796C121.494 122.972 120.462 123.884 119.118 124.532C117.774 125.18 116.214 125.504 114.438 125.504C112.638 125.504 111.066 125.18 109.722 124.532C108.402 123.884 107.382 122.972 106.662 121.796C105.942 120.62 105.582 119.276 105.582 117.764C105.582 116.324 105.918 115.052 106.59 113.948C107.286 112.82 108.246 111.932 109.47 111.284C108.606 110.684 107.934 109.94 107.454 109.052C106.974 108.14 106.734 107.156 106.734 106.1C106.734 104.924 107.01 103.82 107.562 102.788C108.114 101.756 108.966 100.916 110.118 100.268C111.27 99.62 112.71 99.296 114.438 99.296C116.166 99.296 117.594 99.62 118.722 100.268C119.85 100.916 120.678 101.756 121.206 102.788C121.734 103.82 121.998 104.924 121.998 106.1C121.998 107.18 121.782 108.164 121.35 109.052C120.918 109.94 120.294 110.684 119.478 111.284ZM114.438 102.896C113.286 102.896 112.386 103.196 111.738 103.796C111.09 104.372 110.766 105.152 110.766 106.136C110.766 107.072 111.09 107.852 111.738 108.476C112.41 109.1 113.31 109.412 114.438 109.412C115.566 109.412 116.43 109.1 117.03 108.476C117.654 107.852 117.966 107.072 117.966 106.136C117.966 105.152 117.654 104.372 117.03 103.796C116.43 103.196 115.566 102.896 114.438 102.896ZM114.438 121.544C115.878 121.544 117.006 121.184 117.822 120.464C118.638 119.72 119.046 118.724 119.046 117.476C119.046 116.3 118.626 115.34 117.786 114.596C116.97 113.852 115.854 113.48 114.438 113.48C113.022 113.48 111.894 113.852 111.054 114.596C110.238 115.34 109.83 116.3 109.83 117.476C109.83 118.724 110.238 119.72 111.054 120.464C111.87 121.184 112.998 121.544 114.438 121.544Z" fill="#FEFEFE"/>
<path d="M41.22 149.2H42.7L42.92 150.82C43.4267 150.193 43.9067 149.733 44.36 149.44C44.8267 149.147 45.3133 149 45.82 149C45.98 149 46.1333 149.02 46.28 149.06L46.1 151.04C45.9267 151 45.7267 150.98 45.5 150.98C45.0067 150.98 44.54 151.093 44.1 151.32C43.66 151.533 43.34 151.787 43.14 152.08V159H41.22V149.2ZM51.9942 159.2C50.8742 159.2 49.9142 158.973 49.1142 158.52C48.3276 158.053 47.7276 157.427 47.3142 156.64C46.9009 155.853 46.6942 154.98 46.6942 154.02C46.6942 153.1 46.8809 152.26 47.2542 151.5C47.6409 150.727 48.1942 150.12 48.9142 149.68C49.6476 149.227 50.5076 149 51.4942 149C52.7476 149 53.7609 149.367 54.5342 150.1C55.3209 150.833 55.7142 151.847 55.7142 153.14C55.7142 153.473 55.6876 153.793 55.6342 154.1H48.5342C48.6542 155.367 49.0409 156.267 49.6942 156.8C50.3476 157.333 51.1876 157.6 52.2142 157.6C53.2409 157.6 54.1809 157.407 55.0342 157.02L55.2742 158.44C54.1409 158.947 53.0476 159.2 51.9942 159.2ZM53.8542 152.86C53.8542 152.153 53.6542 151.6 53.2542 151.2C52.8542 150.8 52.2542 150.6 51.4542 150.6C50.6809 150.6 50.0742 150.793 49.6342 151.18C49.1942 151.553 48.8809 152.113 48.6942 152.86H53.8542ZM61.4886 164C60.1019 164 58.9753 163.747 58.1086 163.24C57.2553 162.733 56.8286 162.013 56.8286 161.08C56.8286 160.053 57.3953 159.287 58.5286 158.78C57.8886 158.46 57.5686 158.047 57.5686 157.54C57.5686 156.9 57.9553 156.427 58.7286 156.12C58.1819 155.787 57.7619 155.333 57.4686 154.76C57.1753 154.187 57.0286 153.54 57.0286 152.82C57.0286 152.1 57.1886 151.453 57.5086 150.88C57.8419 150.293 58.3086 149.833 58.9086 149.5C59.5219 149.167 60.2419 149 61.0686 149C61.9486 149 62.7486 149.253 63.4686 149.76C64.1753 149.36 64.9886 149.16 65.9086 149.16H66.0686L65.8486 150.36H65.3886C65.2686 150.36 65.0953 150.373 64.8686 150.4C64.6419 150.427 64.4419 150.46 64.2686 150.5C64.5486 150.82 64.7619 151.18 64.9086 151.58C65.0553 151.98 65.1286 152.393 65.1286 152.82C65.1286 153.567 64.9619 154.24 64.6286 154.84C64.3086 155.427 63.8419 155.893 63.2286 156.24C62.6153 156.573 61.8953 156.74 61.0686 156.74C60.5886 156.74 60.1486 156.68 59.7486 156.56C59.4419 156.667 59.2886 156.84 59.2886 157.08C59.2886 157.4 59.6553 157.613 60.3886 157.72L63.0086 158.14C64.1019 158.313 64.9286 158.627 65.4886 159.08C66.0486 159.533 66.3286 160.16 66.3286 160.96C66.3286 161.96 65.8953 162.713 65.0286 163.22C64.1753 163.74 62.9953 164 61.4886 164ZM61.0686 155.3C61.8153 155.3 62.3886 155.08 62.7886 154.64C63.2019 154.187 63.4086 153.587 63.4086 152.84C63.4086 152.12 63.2019 151.54 62.7886 151.1C62.3886 150.66 61.8153 150.44 61.0686 150.44C60.3219 150.44 59.7486 150.66 59.3486 151.1C58.9486 151.54 58.7486 152.12 58.7486 152.84C58.7486 153.587 58.9486 154.187 59.3486 154.64C59.7486 155.08 60.3219 155.3 61.0686 155.3ZM61.6486 162.4C62.5686 162.4 63.2753 162.28 63.7686 162.04C64.2619 161.8 64.5086 161.453 64.5086 161C64.5086 160.653 64.3553 160.373 64.0486 160.16C63.7553 159.96 63.3086 159.8 62.7086 159.68L59.9086 159.2C59.5086 159.387 59.1819 159.613 58.9286 159.88C58.6753 160.16 58.5486 160.467 58.5486 160.8C58.5486 161.347 58.8219 161.747 59.3686 162C59.9153 162.267 60.6753 162.4 61.6486 162.4ZM67.4895 145H69.2895V147H67.4895V145ZM67.4895 149.2H69.2895V159H67.4895V149.2ZM74.5078 159.2C73.7345 159.2 73.0545 159.113 72.4678 158.94C71.8945 158.753 71.4545 158.553 71.1478 158.34L71.3678 156.6C71.6345 156.84 72.0411 157.067 72.5878 157.28C73.1478 157.493 73.7611 157.6 74.4278 157.6C75.0545 157.6 75.5345 157.493 75.8678 157.28C76.2145 157.067 76.3878 156.767 76.3878 156.38C76.3878 155.927 76.2011 155.587 75.8278 155.36C75.4545 155.12 74.9878 154.92 74.4278 154.76C73.8145 154.6 73.2945 154.433 72.8678 154.26C72.4545 154.073 72.0945 153.793 71.7878 153.42C71.4945 153.047 71.3478 152.553 71.3478 151.94C71.3478 151.1 71.6478 150.4 72.2478 149.84C72.8478 149.28 73.7745 149 75.0278 149C75.6011 149 76.0878 149.06 76.4878 149.18C76.8878 149.287 77.2878 149.44 77.6878 149.64L77.4678 151.28C77.1478 151.013 76.7945 150.807 76.4078 150.66C76.0211 150.5 75.5745 150.42 75.0678 150.42C74.4811 150.42 74.0145 150.533 73.6678 150.76C73.3345 150.973 73.1678 151.3 73.1678 151.74C73.1678 152.033 73.2478 152.273 73.4078 152.46C73.5678 152.633 73.7945 152.78 74.0878 152.9C74.3811 153.02 74.8345 153.173 75.4478 153.36C76.2078 153.587 76.8611 153.907 77.4078 154.32C77.9678 154.733 78.2478 155.387 78.2478 156.28C78.2478 157.08 77.9611 157.767 77.3878 158.34C76.8278 158.913 75.8678 159.2 74.5078 159.2ZM83.3891 159.2C82.5224 159.2 81.8757 158.973 81.4491 158.52C81.0357 158.067 80.8291 157.513 80.8291 156.86V150.6H79.1491L79.3091 149.2H80.8291V146.78L82.6291 146.6V149.2H85.2091V150.6H82.6291V155.76C82.6291 156.44 82.6691 156.907 82.7491 157.16C82.8291 157.413 82.9957 157.58 83.2491 157.66C83.5157 157.727 83.9957 157.76 84.6891 157.76H85.1491L85.0091 159.2H83.3891ZM86.7473 149.2H88.2273L88.4473 150.82C88.954 150.193 89.434 149.733 89.8873 149.44C90.354 149.147 90.8407 149 91.3473 149C91.5073 149 91.6607 149.02 91.8073 149.06L91.6273 151.04C91.454 151 91.254 150.98 91.0273 150.98C90.534 150.98 90.0673 151.093 89.6273 151.32C89.1873 151.533 88.8673 151.787 88.6673 152.08V159H86.7473V149.2ZM95.2188 159.2C94.3121 159.2 93.5788 158.933 93.0188 158.4C92.4721 157.867 92.1988 157.187 92.1988 156.36C92.1988 155.12 92.7854 154.233 93.9588 153.7C95.1321 153.167 96.4988 152.887 98.0588 152.86C98.0588 151.98 97.8854 151.387 97.5388 151.08C97.2054 150.76 96.6654 150.6 95.9188 150.6C95.5054 150.6 95.0921 150.667 94.6788 150.8C94.2654 150.92 93.8188 151.147 93.3388 151.48L93.0788 150.02C93.4788 149.713 93.9721 149.467 94.5588 149.28C95.1454 149.093 95.7588 149 96.3988 149C97.2388 149 97.9054 149.147 98.3988 149.44C98.9054 149.733 99.2721 150.22 99.4988 150.9C99.7388 151.58 99.8588 152.513 99.8588 153.7V155.7C99.8588 156.233 99.8788 156.64 99.9188 156.92C99.9721 157.187 100.079 157.393 100.239 157.54C100.399 157.687 100.645 157.76 100.979 157.76H101.159L100.879 159.2H100.739C100.179 159.2 99.7388 159.147 99.4188 159.04C99.0988 158.933 98.8521 158.78 98.6788 158.58C98.5188 158.38 98.3654 158.107 98.2188 157.76C97.3921 158.72 96.3921 159.2 95.2188 159.2ZM95.5588 157.76C96.0388 157.76 96.4988 157.64 96.9388 157.4C97.3921 157.16 97.7654 156.84 98.0588 156.44V154.1C96.6188 154.153 95.5854 154.347 94.9588 154.68C94.3454 155 94.0388 155.527 94.0388 156.26C94.0388 156.767 94.1721 157.147 94.4388 157.4C94.7188 157.64 95.0921 157.76 95.5588 157.76ZM107.388 149C110.055 149 111.388 150.533 111.388 153.6V159H109.588V153.6C109.588 152.547 109.388 151.787 108.988 151.32C108.601 150.84 107.948 150.6 107.028 150.6C106.441 150.6 105.908 150.707 105.428 150.92C104.948 151.133 104.588 151.453 104.348 151.88V159H102.548V149.2H103.948L104.148 150.24C104.668 149.773 105.188 149.453 105.708 149.28C106.241 149.093 106.801 149 107.388 149ZM116.944 159.2C116.077 159.2 115.43 158.973 115.004 158.52C114.59 158.067 114.384 157.513 114.384 156.86V150.6H112.704L112.864 149.2H114.384V146.78L116.184 146.6V149.2H118.764V150.6H116.184V155.76C116.184 156.44 116.224 156.907 116.304 157.16C116.384 157.413 116.55 157.58 116.804 157.66C117.07 157.727 117.55 157.76 118.244 157.76H118.704L118.564 159.2H116.944ZM123.082 159.2C122.309 159.2 121.629 159.113 121.042 158.94C120.469 158.753 120.029 158.553 119.722 158.34L119.942 156.6C120.209 156.84 120.615 157.067 121.162 157.28C121.722 157.493 122.335 157.6 123.002 157.6C123.629 157.6 124.109 157.493 124.442 157.28C124.789 157.067 124.962 156.767 124.962 156.38C124.962 155.927 124.775 155.587 124.402 155.36C124.029 155.12 123.562 154.92 123.002 154.76C122.389 154.6 121.869 154.433 121.442 154.26C121.029 154.073 120.669 153.793 120.362 153.42C120.069 153.047 119.922 152.553 119.922 151.94C119.922 151.1 120.222 150.4 120.822 149.84C121.422 149.28 122.349 149 123.602 149C124.175 149 124.662 149.06 125.062 149.18C125.462 149.287 125.862 149.44 126.262 149.64L126.042 151.28C125.722 151.013 125.369 150.807 124.982 150.66C124.595 150.5 124.149 150.42 123.642 150.42C123.055 150.42 122.589 150.533 122.242 150.76C121.909 150.973 121.742 151.3 121.742 151.74C121.742 152.033 121.822 152.273 121.982 152.46C122.142 152.633 122.369 152.78 122.662 152.9C122.955 153.02 123.409 153.173 124.022 153.36C124.782 153.587 125.435 153.907 125.982 154.32C126.542 154.733 126.822 155.387 126.822 156.28C126.822 157.08 126.535 157.767 125.962 158.34C125.402 158.913 124.442 159.2 123.082 159.2Z" fill="#FEFEFE"/>
<path d="M181.684 106.316C180.676 106.988 179.62 107.42 178.516 107.612L178.12 103.724C178.912 103.556 179.8 103.076 180.784 102.284C181.768 101.468 182.428 100.64 182.764 99.8H186.292V125H181.684V106.316ZM194.973 106.316C193.965 106.988 192.909 107.42 191.805 107.612L191.409 103.724C192.201 103.556 193.089 103.076 194.073 102.284C195.057 101.468 195.717 100.64 196.053 99.8H199.581V125H194.973V106.316ZM212.438 109.16C214.886 109.16 216.854 109.88 218.342 111.32C219.854 112.736 220.61 114.68 220.61 117.152C220.61 118.856 220.226 120.332 219.458 121.58C218.714 122.828 217.67 123.788 216.326 124.46C215.006 125.132 213.482 125.468 211.754 125.468C209.114 125.468 206.81 124.796 204.842 123.452L205.922 119.276C206.882 119.876 207.818 120.344 208.73 120.68C209.642 120.992 210.626 121.148 211.682 121.148C213.05 121.148 214.13 120.788 214.922 120.068C215.738 119.348 216.146 118.376 216.146 117.152C216.146 115.832 215.678 114.8 214.742 114.056C213.83 113.312 212.522 112.94 210.818 112.94C209.474 112.94 207.902 113.108 206.102 113.444L207.722 99.8H219.602L219.314 104.264H211.178L210.566 109.268C211.142 109.196 211.766 109.16 212.438 109.16Z" fill="#FEFEFE"/>
<path d="M181.9 149C183.14 149 184.087 149.407 184.74 150.22C185.393 151.033 185.72 152.14 185.72 153.54V159H183.92V153.76C183.92 152.68 183.72 151.887 183.32 151.38C182.933 150.86 182.327 150.6 181.5 150.6C180.993 150.6 180.527 150.72 180.1 150.96C179.673 151.187 179.313 151.513 179.02 151.94V159H177.2V144H179.02V150.14C179.407 149.767 179.827 149.487 180.28 149.3C180.747 149.1 181.287 149 181.9 149ZM190.34 159.2C189.433 159.2 188.7 158.933 188.14 158.4C187.593 157.867 187.32 157.187 187.32 156.36C187.32 155.12 187.907 154.233 189.08 153.7C190.253 153.167 191.62 152.887 193.18 152.86C193.18 151.98 193.007 151.387 192.66 151.08C192.327 150.76 191.787 150.6 191.04 150.6C190.627 150.6 190.213 150.667 189.8 150.8C189.387 150.92 188.94 151.147 188.46 151.48L188.2 150.02C188.6 149.713 189.093 149.467 189.68 149.28C190.267 149.093 190.88 149 191.52 149C192.36 149 193.027 149.147 193.52 149.44C194.027 149.733 194.393 150.22 194.62 150.9C194.86 151.58 194.98 152.513 194.98 153.7V155.7C194.98 156.233 195 156.64 195.04 156.92C195.093 157.187 195.2 157.393 195.36 157.54C195.52 157.687 195.767 157.76 196.1 157.76H196.28L196 159.2H195.86C195.3 159.2 194.86 159.147 194.54 159.04C194.22 158.933 193.973 158.78 193.8 158.58C193.64 158.38 193.487 158.107 193.34 157.76C192.513 158.72 191.513 159.2 190.34 159.2ZM190.68 157.76C191.16 157.76 191.62 157.64 192.06 157.4C192.513 157.16 192.887 156.84 193.18 156.44V154.1C191.74 154.153 190.707 154.347 190.08 154.68C189.467 155 189.16 155.527 189.16 156.26C189.16 156.767 189.293 157.147 189.56 157.4C189.84 157.64 190.213 157.76 190.68 157.76ZM202.169 159.2C201.103 159.2 200.183 158.98 199.409 158.54C198.649 158.1 198.076 157.5 197.689 156.74C197.303 155.967 197.109 155.107 197.109 154.16C197.109 152.613 197.543 151.367 198.409 150.42C199.289 149.473 200.589 149 202.309 149C203.323 149 204.216 149.193 204.989 149.58L204.709 151.16C203.896 150.787 203.083 150.6 202.269 150.6C201.203 150.6 200.383 150.907 199.809 151.52C199.236 152.12 198.949 152.973 198.949 154.08C198.949 155.187 199.223 156.053 199.769 156.68C200.329 157.307 201.149 157.62 202.229 157.62C203.096 157.62 203.929 157.42 204.729 157.02L204.969 158.46C204.676 158.66 204.269 158.833 203.749 158.98C203.243 159.127 202.716 159.2 202.169 159.2ZM206.731 144H208.531V153.62L212.131 149.2H214.331L210.431 153.76L214.431 159H212.231L208.531 154.02V159H206.731V144ZM218.496 159.2C217.723 159.2 217.043 159.113 216.456 158.94C215.883 158.753 215.443 158.553 215.136 158.34L215.356 156.6C215.623 156.84 216.029 157.067 216.576 157.28C217.136 157.493 217.749 157.6 218.416 157.6C219.043 157.6 219.523 157.493 219.856 157.28C220.203 157.067 220.376 156.767 220.376 156.38C220.376 155.927 220.189 155.587 219.816 155.36C219.443 155.12 218.976 154.92 218.416 154.76C217.803 154.6 217.283 154.433 216.856 154.26C216.443 154.073 216.083 153.793 215.776 153.42C215.483 153.047 215.336 152.553 215.336 151.94C215.336 151.1 215.636 150.4 216.236 149.84C216.836 149.28 217.763 149 219.016 149C219.589 149 220.076 149.06 220.476 149.18C220.876 149.287 221.276 149.44 221.676 149.64L221.456 151.28C221.136 151.013 220.783 150.807 220.396 150.66C220.009 150.5 219.563 150.42 219.056 150.42C218.469 150.42 218.003 150.533 217.656 150.76C217.323 150.973 217.156 151.3 217.156 151.74C217.156 152.033 217.236 152.273 217.396 152.46C217.556 152.633 217.783 152.78 218.076 152.9C218.369 153.02 218.823 153.173 219.436 153.36C220.196 153.587 220.849 153.907 221.396 154.32C221.956 154.733 222.236 155.387 222.236 156.28C222.236 157.08 221.949 157.767 221.376 158.34C220.816 158.913 219.856 159.2 218.496 159.2Z" fill="#FEFEFE"/>
<path d="M299.984 115.496V119.24H296.744V125H292.316V119.24H279.752L293.612 99.8H296.744V115.496H299.984ZM292.316 115.496V107.756L286.88 115.496H292.316ZM314.567 125.504C312.455 125.504 310.595 124.952 308.987 123.848C307.403 122.744 306.167 121.184 305.279 119.168C304.391 117.152 303.947 114.824 303.947 112.184C303.947 109.664 304.391 107.432 305.279 105.488C306.167 103.52 307.415 101.996 309.023 100.916C310.631 99.836 312.479 99.296 314.567 99.296C316.679 99.296 318.539 99.848 320.147 100.952C321.755 102.032 322.991 103.544 323.855 105.488C324.743 107.432 325.187 109.664 325.187 112.184C325.187 114.824 324.743 117.152 323.855 119.168C322.991 121.184 321.755 122.744 320.147 123.848C318.539 124.952 316.679 125.504 314.567 125.504ZM314.567 121.364C316.391 121.364 317.843 120.608 318.923 119.096C320.027 117.584 320.579 115.28 320.579 112.184C320.579 109.304 320.027 107.12 318.923 105.632C317.819 104.12 316.367 103.364 314.567 103.364C312.767 103.364 311.315 104.12 310.211 105.632C309.107 107.12 308.555 109.304 308.555 112.184C308.555 115.256 309.095 117.56 310.175 119.096C311.279 120.608 312.743 121.364 314.567 121.364ZM339.985 125.504C337.873 125.504 336.013 124.952 334.405 123.848C332.821 122.744 331.585 121.184 330.697 119.168C329.809 117.152 329.365 114.824 329.365 112.184C329.365 109.664 329.809 107.432 330.697 105.488C331.585 103.52 332.833 101.996 334.441 100.916C336.049 99.836 337.897 99.296 339.985 99.296C342.097 99.296 343.957 99.848 345.565 100.952C347.173 102.032 348.409 103.544 349.273 105.488C350.161 107.432 350.605 109.664 350.605 112.184C350.605 114.824 350.161 117.152 349.273 119.168C348.409 121.184 347.173 122.744 345.565 123.848C343.957 124.952 342.097 125.504 339.985 125.504ZM339.985 121.364C341.809 121.364 343.261 120.608 344.341 119.096C345.445 117.584 345.997 115.28 345.997 112.184C345.997 109.304 345.445 107.12 344.341 105.632C343.237 104.12 341.785 103.364 339.985 103.364C338.185 103.364 336.733 104.12 335.629 105.632C334.525 107.12 333.973 109.304 333.973 112.184C333.973 115.256 334.513 117.56 335.593 119.096C336.697 120.608 338.161 121.364 339.985 121.364ZM365.403 125.504C363.291 125.504 361.431 124.952 359.823 123.848C358.239 122.744 357.003 121.184 356.115 119.168C355.227 117.152 354.783 114.824 354.783 112.184C354.783 109.664 355.227 107.432 356.115 105.488C357.003 103.52 358.251 101.996 359.859 100.916C361.467 99.836 363.315 99.296 365.403 99.296C367.515 99.296 369.375 99.848 370.983 100.952C372.591 102.032 373.827 103.544 374.691 105.488C375.579 107.432 376.023 109.664 376.023 112.184C376.023 114.824 375.579 117.152 374.691 119.168C373.827 121.184 372.591 122.744 370.983 123.848C369.375 124.952 367.515 125.504 365.403 125.504ZM365.403 121.364C367.227 121.364 368.679 120.608 369.759 119.096C370.863 117.584 371.415 115.28 371.415 112.184C371.415 109.304 370.863 107.12 369.759 105.632C368.655 104.12 367.203 103.364 365.403 103.364C363.603 103.364 362.151 104.12 361.047 105.632C359.943 107.12 359.391 109.304 359.391 112.184C359.391 115.256 359.931 117.56 361.011 119.096C362.115 120.608 363.579 121.364 365.403 121.364Z" fill="#FEFEFE"/>
<path d="M278.24 159.28C276.307 159.28 274.853 158.74 273.88 157.66C272.92 156.567 272.44 155.033 272.44 153.06V145H274.34V152.54C274.34 154.073 274.613 155.293 275.16 156.2C275.707 157.107 276.733 157.56 278.24 157.56C279.747 157.56 280.773 157.107 281.32 156.2C281.867 155.28 282.14 154.06 282.14 152.54V145H284.04V153.06C284.04 155.033 283.553 156.567 282.58 157.66C281.62 158.74 280.173 159.28 278.24 159.28ZM291.073 159.28C290.246 159.28 289.406 159.187 288.553 159C287.699 158.827 287.013 158.62 286.493 158.38L286.753 156.36C287.419 156.68 288.173 156.96 289.013 157.2C289.853 157.44 290.686 157.56 291.513 157.56C292.446 157.56 293.166 157.393 293.673 157.06C294.193 156.713 294.453 156.2 294.453 155.52C294.453 155.013 294.319 154.593 294.053 154.26C293.799 153.913 293.419 153.627 292.913 153.4C292.419 153.16 291.726 152.907 290.833 152.64C289.926 152.373 289.173 152.087 288.573 151.78C287.973 151.473 287.486 151.053 287.113 150.52C286.753 149.987 286.573 149.313 286.573 148.5C286.573 147.367 287.006 146.453 287.873 145.76C288.753 145.067 289.986 144.72 291.573 144.72C292.426 144.72 293.233 144.813 293.993 145C294.766 145.187 295.439 145.413 296.013 145.68L295.813 147.7C295.066 147.26 294.346 146.94 293.653 146.74C292.959 146.54 292.239 146.44 291.493 146.44C290.626 146.44 289.933 146.6 289.413 146.92C288.906 147.24 288.653 147.733 288.653 148.4C288.653 148.853 288.766 149.227 288.993 149.52C289.233 149.813 289.573 150.067 290.013 150.28C290.453 150.48 291.066 150.7 291.853 150.94C293.426 151.42 294.599 151.993 295.373 152.66C296.146 153.313 296.533 154.22 296.533 155.38C296.533 156.607 296.073 157.567 295.153 158.26C294.233 158.94 292.873 159.28 291.073 159.28ZM298.752 145H303.932C305.292 145 306.499 145.28 307.552 145.84C308.606 146.387 309.426 147.193 310.012 148.26C310.599 149.313 310.892 150.56 310.892 152C310.892 153.44 310.599 154.693 310.012 155.76C309.426 156.813 308.606 157.62 307.552 158.18C306.499 158.727 305.292 159 303.932 159H298.752V145ZM303.932 157.28C305.492 157.28 306.692 156.807 307.532 155.86C308.386 154.9 308.812 153.613 308.812 152C308.812 150.387 308.386 149.107 307.532 148.16C306.692 147.2 305.492 146.72 303.932 146.72H300.652V157.28H303.932ZM326.076 144V159H324.476L324.276 157.8C323.942 158.253 323.509 158.6 322.976 158.84C322.442 159.08 321.876 159.2 321.276 159.2C320.449 159.2 319.696 158.973 319.016 158.52C318.336 158.067 317.796 157.453 317.396 156.68C317.009 155.907 316.816 155.053 316.816 154.12C316.816 153.213 316.996 152.367 317.356 151.58C317.729 150.793 318.256 150.167 318.936 149.7C319.616 149.233 320.396 149 321.276 149C321.862 149 322.416 149.107 322.936 149.32C323.456 149.533 323.902 149.86 324.276 150.3V144H326.076ZM321.596 157.6C322.076 157.6 322.536 157.48 322.976 157.24C323.416 156.987 323.776 156.6 324.056 156.08C324.336 155.56 324.476 154.907 324.476 154.12C324.476 153.387 324.336 152.753 324.056 152.22C323.776 151.687 323.409 151.287 322.956 151.02C322.516 150.74 322.062 150.6 321.596 150.6C320.689 150.6 319.969 150.933 319.436 151.6C318.916 152.253 318.656 153.093 318.656 154.12C318.656 155.107 318.922 155.933 319.456 156.6C319.989 157.267 320.702 157.6 321.596 157.6ZM332.77 159.2C331.77 159.2 330.903 158.98 330.17 158.54C329.436 158.087 328.876 157.473 328.49 156.7C328.103 155.927 327.91 155.06 327.91 154.1C327.91 153.14 328.103 152.273 328.49 151.5C328.876 150.727 329.436 150.12 330.17 149.68C330.903 149.227 331.77 149 332.77 149C333.756 149 334.616 149.227 335.35 149.68C336.096 150.12 336.663 150.727 337.05 151.5C337.436 152.273 337.63 153.14 337.63 154.1C337.63 155.06 337.436 155.927 337.05 156.7C336.663 157.473 336.096 158.087 335.35 158.54C334.616 158.98 333.756 159.2 332.77 159.2ZM332.77 157.6C333.73 157.6 334.47 157.293 334.99 156.68C335.523 156.067 335.79 155.207 335.79 154.1C335.79 152.993 335.523 152.133 334.99 151.52C334.47 150.907 333.73 150.6 332.77 150.6C331.81 150.6 331.063 150.907 330.53 151.52C330.01 152.133 329.75 152.993 329.75 154.1C329.75 155.207 330.01 156.067 330.53 156.68C331.063 157.293 331.81 157.6 332.77 157.6ZM344.326 149C346.992 149 348.326 150.533 348.326 153.6V159H346.526V153.6C346.526 152.547 346.326 151.787 345.926 151.32C345.539 150.84 344.886 150.6 343.966 150.6C343.379 150.6 342.846 150.707 342.366 150.92C341.886 151.133 341.526 151.453 341.286 151.88V159H339.486V149.2H340.886L341.086 150.24C341.606 149.773 342.126 149.453 342.646 149.28C343.179 149.093 343.739 149 344.326 149ZM352.938 159.2C352.031 159.2 351.298 158.933 350.738 158.4C350.191 157.867 349.918 157.187 349.918 156.36C349.918 155.12 350.504 154.233 351.678 153.7C352.851 153.167 354.218 152.887 355.778 152.86C355.778 151.98 355.604 151.387 355.258 151.08C354.924 150.76 354.384 150.6 353.638 150.6C353.224 150.6 352.811 150.667 352.398 150.8C351.984 150.92 351.538 151.147 351.058 151.48L350.798 150.02C351.198 149.713 351.691 149.467 352.278 149.28C352.864 149.093 353.478 149 354.118 149C354.958 149 355.624 149.147 356.118 149.44C356.624 149.733 356.991 150.22 357.218 150.9C357.458 151.58 357.578 152.513 357.578 153.7V155.7C357.578 156.233 357.598 156.64 357.638 156.92C357.691 157.187 357.798 157.393 357.958 157.54C358.118 157.687 358.364 157.76 358.698 157.76H358.878L358.598 159.2H358.458C357.898 159.2 357.458 159.147 357.138 159.04C356.818 158.933 356.571 158.78 356.398 158.58C356.238 158.38 356.084 158.107 355.938 157.76C355.111 158.72 354.111 159.2 352.938 159.2ZM353.278 157.76C353.758 157.76 354.218 157.64 354.658 157.4C355.111 157.16 355.484 156.84 355.778 156.44V154.1C354.338 154.153 353.304 154.347 352.678 154.68C352.064 155 351.758 155.527 351.758 156.26C351.758 156.767 351.891 157.147 352.158 157.4C352.438 157.64 352.811 157.76 353.278 157.76ZM363.452 159.2C362.585 159.2 361.938 158.973 361.512 158.52C361.098 158.067 360.892 157.513 360.892 156.86V150.6H359.212L359.372 149.2H360.892V146.78L362.692 146.6V149.2H365.272V150.6H362.692V155.76C362.692 156.44 362.732 156.907 362.812 157.16C362.892 157.413 363.058 157.58 363.312 157.66C363.578 157.727 364.058 157.76 364.752 157.76H365.212L365.072 159.2H363.452ZM371.432 159.2C370.312 159.2 369.352 158.973 368.552 158.52C367.765 158.053 367.165 157.427 366.752 156.64C366.338 155.853 366.132 154.98 366.132 154.02C366.132 153.1 366.318 152.26 366.692 151.5C367.078 150.727 367.632 150.12 368.352 149.68C369.085 149.227 369.945 149 370.932 149C372.185 149 373.198 149.367 373.972 150.1C374.758 150.833 375.152 151.847 375.152 153.14C375.152 153.473 375.125 153.793 375.072 154.1H367.972C368.092 155.367 368.478 156.267 369.132 156.8C369.785 157.333 370.625 157.6 371.652 157.6C372.678 157.6 373.618 157.407 374.472 157.02L374.712 158.44C373.578 158.947 372.485 159.2 371.432 159.2ZM373.292 152.86C373.292 152.153 373.092 151.6 372.692 151.2C372.292 150.8 371.692 150.6 370.892 150.6C370.118 150.6 369.512 150.793 369.072 151.18C368.632 151.553 368.318 152.113 368.132 152.86H373.292ZM385.646 144V159H384.046L383.846 157.8C383.513 158.253 383.079 158.6 382.546 158.84C382.013 159.08 381.446 159.2 380.846 159.2C380.019 159.2 379.266 158.973 378.586 158.52C377.906 158.067 377.366 157.453 376.966 156.68C376.579 155.907 376.386 155.053 376.386 154.12C376.386 153.213 376.566 152.367 376.926 151.58C377.299 150.793 377.826 150.167 378.506 149.7C379.186 149.233 379.966 149 380.846 149C381.433 149 381.986 149.107 382.506 149.32C383.026 149.533 383.473 149.86 383.846 150.3V144H385.646ZM381.166 157.6C381.646 157.6 382.106 157.48 382.546 157.24C382.986 156.987 383.346 156.6 383.626 156.08C383.906 155.56 384.046 154.907 384.046 154.12C384.046 153.387 383.906 152.753 383.626 152.22C383.346 151.687 382.979 151.287 382.526 151.02C382.086 150.74 381.633 150.6 381.166 150.6C380.259 150.6 379.539 150.933 379.006 151.6C378.486 152.253 378.226 153.093 378.226 154.12C378.226 155.107 378.493 155.933 379.026 156.6C379.559 157.267 380.273 157.6 381.166 157.6Z" fill="#FEFEFE"/>
<rect x="1" y="1" width="425" height="182" rx="7" stroke="#FEFEFE" stroke-width="2"/>
</svg>
