<svg width="352" height="187" viewBox="0 0 352 187" fill="none" xmlns="http://www.w3.org/2000/svg">
<path d="M100 102H68C65.7909 102 64 103.791 64 106V138C64 140.209 65.7909 142 68 142H100C102.209 142 104 140.209 104 138V106C104 103.791 102.209 102 100 102Z" fill="#0042C6"/>
<path d="M100 147H68C65.7909 147 64 148.791 64 151V183C64 185.209 65.7909 187 68 187H100C102.209 187 104 185.209 104 183V151C104 148.791 102.209 147 100 147Z" fill="#E55511"/>
<path d="M251 105V184C251 185.657 252.343 187 254 187H288C289.657 187 291 185.657 291 184V105C291 103.343 289.657 102 288 102H254C252.343 102 251 103.343 251 105Z" fill="#0042C6"/>
<circle cx="324" cy="159" r="26.5" stroke="#E55511" stroke-width="3" stroke-linejoin="round" stroke-dasharray="10 5"/>
<circle cx="28" cy="159" r="28" fill="#F7AF1C"/>
<path fill-rule="evenodd" clip-rule="evenodd" d="M244.368 106C244.368 103.791 242.578 102 240.368 102H117C114.791 102 113 103.791 113 106V182.842C113 185.051 114.791 186.842 117 186.842H154.158C156.367 186.842 158.158 185.051 158.158 182.842V166.316C158.158 163.62 158.689 160.951 159.72 158.461C160.752 155.97 162.264 153.708 164.17 151.802C166.076 149.895 168.339 148.384 170.829 147.352C173.319 146.32 175.989 145.789 178.684 145.789C181.38 145.789 184.049 146.32 186.539 147.352C189.03 148.384 191.292 149.895 193.198 151.802C195.105 153.708 196.616 155.97 197.648 158.461C198.68 160.951 199.211 163.62 199.211 166.316V182.842C199.211 185.051 201.001 186.842 203.211 186.842H240.368C242.578 186.842 244.368 185.051 244.368 182.842V106Z" fill="#F7AF1C"/>
<path d="M197.054 26.229C198.009 28.5342 198.5 31.0049 198.5 33.5V50C198.5 51.3807 197.381 52.5 196 52.5L163 52.5C161.619 52.5 160.5 51.3807 160.5 50V33.5C160.5 31.0049 160.991 28.5342 161.946 26.229C162.901 23.9239 164.301 21.8293 166.065 20.065C167.829 18.3007 169.924 16.9012 172.229 15.9463C174.534 14.9914 177.005 14.5 179.5 14.5C181.995 14.5 184.466 14.9914 186.771 15.9463C189.076 16.9012 191.171 18.3007 192.935 20.065C194.699 21.8293 196.099 23.9239 197.054 26.229Z" stroke="#F7AF1C" stroke-width="3" stroke-linecap="round" stroke-linejoin="round"/>
<path d="M115.469 58.3035C114.491 58.709 113.709 59.4911 113.304 60.4688L114.227 60.8519C114.081 61.2042 114 61.5914 114 62V64H113V68H114V72H113V76H114V80H113V84H114V88H113V92H114V94C114 94.4086 114.081 94.7958 114.227 95.1481L113.304 95.5312C113.709 96.5089 114.491 97.291 115.469 97.6965L115.852 96.7728C116.204 96.9189 116.591 97 117 97H119V98H123V97H127V98H131V97H135V98H139V97H143V98H147V97H149C149.409 97 149.796 96.9189 150.148 96.7728L150.531 97.6965C151.509 97.291 152.291 96.5089 152.696 95.5312L151.773 95.1481C151.919 94.7958 152 94.4086 152 94V92H153V88H152V84H153V80H152V76H153V72H152V68H153V64H152V62C152 61.5914 151.919 61.2042 151.773 60.8519L152.696 60.4688C152.291 59.4911 151.509 58.709 150.531 58.3035L150.148 59.2272C149.796 59.0811 149.409 59 149 59H147V58H143V59H139V58H135V59H131V58H127V59H123V58H119V59H117C116.591 59 116.204 59.0811 115.852 59.2272L115.469 58.3035Z" stroke="#0042C6" stroke-width="2" stroke-dasharray="4 4"/>
<path d="M195 58H163C160.791 58 159 59.7909 159 62V94C159 96.2091 160.791 98 163 98H195C197.209 98 199 96.2091 199 94V62C199 59.7909 197.209 58 195 58Z" fill="#FEFEFE"/>
<path d="M209 59.5H241C242.381 59.5 243.5 60.6193 243.5 62V94C243.5 95.3807 242.381 96.5 241 96.5H209C207.619 96.5 206.5 95.3807 206.5 94V62C206.5 60.6193 207.619 59.5 209 59.5Z" stroke="#E55511" stroke-width="3"/>
<path d="M81.8349 60.75C82.7972 59.0833 85.2028 59.0833 86.1651 60.75L103.486 90.75C104.448 92.4167 103.245 94.5 101.321 94.5H66.6795C64.755 94.5 63.5522 92.4167 64.5144 90.75L81.8349 60.75Z" stroke="#FEFEFE" stroke-width="3" stroke-linecap="round" stroke-linejoin="round"/>
<path d="M267.536 60C269.075 57.3333 272.925 57.3333 274.464 60L291.785 90C293.324 92.6667 291.4 96 288.321 96H253.679C250.6 96 248.676 92.6667 250.215 90L267.536 60Z" fill="#F7AF1C"/>
<path d="M303 9L285 40.1769" stroke="#FEFEFE" stroke-width="3" stroke-linecap="round"/>
<path d="M325.177 33L294 51" stroke="#FEFEFE" stroke-width="3" stroke-linecap="round"/>
<path d="M271 2V38" stroke="#FEFEFE" stroke-width="3" stroke-linecap="round"/>
</svg>
