<svg width="320" height="450" viewBox="0 0 320 450" fill="none" xmlns="http://www.w3.org/2000/svg">
<path d="M217 450V450C217 436.818 228.695 426.704 241.739 428.604L254.875 430.518C274.063 433.314 290.823 417.444 289.078 398.132L286.552 370.174C285.718 360.95 292.982 353 302.244 353V353C310.946 353 318 345.946 318 337.244V331" stroke="#F7AF1C" stroke-width="3" stroke-linecap="round" stroke-linejoin="round"/>
<path d="M217 1V25M205 13H229M208.515 4.51471L225.485 21.4853M225.485 4.51471L208.515 21.4853" stroke="#0042C6" stroke-width="2" stroke-linecap="round"/>
<path d="M33.7923 318.971C33.066 320.724 32.0014 322.317 30.6593 323.659L21.8537 332.465C21.0726 333.246 19.8063 333.246 19.0252 332.465L1.41402 314.854C0.632968 314.073 0.632966 312.806 1.41401 312.025L10.2196 303.22C11.5617 301.878 13.155 300.813 14.9085 300.087C16.662 299.36 18.5415 298.987 20.4395 298.987C22.3374 298.987 24.2169 299.36 25.9704 300.087C27.7239 300.813 29.3172 301.878 30.6593 303.22C32.0014 304.562 33.066 306.155 33.7923 307.909C34.5186 309.662 34.8925 311.542 34.8925 313.44C34.8924 315.338 34.5186 317.217 33.7923 318.971Z" fill="#35C69B"/>
<path d="M15 188V94.5C15 88.9772 19.4772 84.5 25 84.5H83" stroke="#E55511" stroke-width="2"/>
</svg>
