<svg width="255" height="491" viewBox="0 0 255 491" fill="none" xmlns="http://www.w3.org/2000/svg">
<path d="M21.3455 436.186L19.7525 443.673M14.9735 466.133L16.1683 460.518M3.18607 447.973L9.92412 449.407M33.1329 454.345L27.3307 453.111M9.82452 438.319L13.992 444.739M26.4945 464L22.327 457.58M31.0002 442.824L24.5798 446.992M5.31882 459.494L11.7392 455.327" stroke="#35C69B" stroke-width="3" stroke-linecap="round"/>
<path d="M94.5373 364V378M94.5373 420V409.5M67 392H79.3918M122.075 392H111.404M75.0655 372.201L84.8013 382.1M114.009 411.799L104.273 401.899M114.009 372.201L104.273 382.1M75.0654 411.799L84.8013 401.899" stroke="#F7AF1C" stroke-width="3" stroke-linecap="round"/>
<path d="M242.38 456.709L237.257 462.396M221.888 479.457L225.73 475.192M220.246 457.374L225.595 462.193M244.022 478.792L239.415 474.642M230.973 452.468L231.553 460.275M233.295 483.698L232.714 475.89M247.785 467.612L239.959 467.848M216.483 468.554L224.308 468.318" stroke="#FEFEFE" stroke-width="3" stroke-linecap="round"/>
<path d="M232.785 12L226.684 22.5669M208.381 54.2677L212.957 46.3425M199.798 21.1339L209.151 26.5339M241.368 45.1339L233.314 40.4839M214.514 9.70466L217.548 21.4192M226.652 56.563L223.617 44.8484M243.908 26.6752L232.245 29.9045M197.258 39.5925L208.921 36.3631" stroke="#E55511" stroke-width="3" stroke-linecap="round"/>
</svg>
