<svg width="19" height="20" viewBox="0 0 19 20" fill="none" xmlns="http://www.w3.org/2000/svg">
<path d="M0.292893 17.7782C-0.0976311 18.1687 -0.0976311 18.8019 0.292893 19.1924C0.683418 19.5829 1.31658 19.5829 1.70711 19.1924L0.292893 17.7782ZM18.9706 1.51473C18.9706 0.962443 18.5228 0.514728 17.9706 0.514728L8.97056 0.514728C8.41828 0.514728 7.97056 0.962444 7.97056 1.51473C7.97056 2.06701 8.41828 2.51473 8.97056 2.51473L16.9706 2.51473L16.9706 10.5147C16.9706 11.067 17.4183 11.5147 17.9706 11.5147C18.5228 11.5147 18.9706 11.067 18.9706 10.5147L18.9706 1.51473ZM1.70711 19.1924L18.6777 2.22183L17.2635 0.807621L0.292893 17.7782L1.70711 19.1924Z" fill="#35C69B"/>
</svg>
