<svg width="427" height="184" viewBox="0 0 427 184" fill="none" xmlns="http://www.w3.org/2000/svg">
<rect x="1" y="1" width="425" height="182" rx="7" fill="#0042C6"/>
<path d="M150.872 28.2H153.656V45H150.872V28.2ZM167.379 27V45H164.907L164.787 43.992C163.875 44.824 162.747 45.24 161.403 45.24C160.299 45.24 159.331 44.968 158.499 44.424C157.667 43.864 157.027 43.12 156.579 42.192C156.131 41.248 155.907 40.208 155.907 39.072C155.907 37.952 156.123 36.92 156.555 35.976C157.003 35.032 157.635 34.28 158.451 33.72C159.283 33.16 160.267 32.88 161.403 32.88C162.699 32.88 163.795 33.264 164.691 34.032V27H167.379ZM161.811 42.984C162.755 42.984 163.499 42.64 164.043 41.952C164.603 41.264 164.883 40.304 164.883 39.072C164.883 37.856 164.603 36.896 164.043 36.192C163.483 35.488 162.739 35.136 161.811 35.136C160.835 35.136 160.067 35.504 159.507 36.24C158.947 36.96 158.667 37.904 158.667 39.072C158.667 40.224 158.947 41.168 159.507 41.904C160.067 42.624 160.835 42.984 161.811 42.984ZM175.933 45.24C174.557 45.24 173.381 44.96 172.405 44.4C171.445 43.84 170.717 43.088 170.221 42.144C169.725 41.184 169.477 40.12 169.477 38.952C169.477 37.832 169.701 36.816 170.149 35.904C170.613 34.976 171.285 34.24 172.165 33.696C173.061 33.152 174.109 32.88 175.309 32.88C176.365 32.88 177.277 33.104 178.045 33.552C178.829 33.984 179.421 34.584 179.821 35.352C180.237 36.12 180.445 37 180.445 37.992C180.445 38.504 180.389 38.992 180.277 39.456H172.261C172.405 40.688 172.829 41.584 173.533 42.144C174.253 42.704 175.141 42.984 176.197 42.984C177.493 42.984 178.669 42.688 179.725 42.096L179.917 44.328C178.701 44.936 177.373 45.24 175.933 45.24ZM177.709 37.632C177.709 36.928 177.509 36.336 177.109 35.856C176.709 35.376 176.101 35.136 175.285 35.136C173.733 35.136 172.757 35.968 172.357 37.632H177.709ZM185.165 45.24C184.141 45.24 183.293 44.92 182.621 44.28C181.965 43.624 181.637 42.768 181.637 41.712C181.637 40.672 182.005 39.84 182.741 39.216C183.477 38.592 184.357 38.152 185.381 37.896C186.421 37.624 187.453 37.472 188.477 37.44C188.461 36.608 188.277 36.032 187.925 35.712C187.573 35.376 186.989 35.208 186.173 35.208C185.661 35.208 185.149 35.288 184.637 35.448C184.141 35.592 183.581 35.832 182.957 36.168L182.669 33.984C184.013 33.248 185.429 32.88 186.917 32.88C188.357 32.88 189.429 33.28 190.133 34.08C190.837 34.864 191.189 36.168 191.189 37.992V40.944C191.189 41.568 191.213 42.024 191.261 42.312C191.325 42.584 191.429 42.776 191.573 42.888C191.733 43 191.989 43.056 192.341 43.056H192.677L192.365 45.24H191.621C190.853 45.24 190.253 45.112 189.821 44.856C189.405 44.6 189.069 44.224 188.813 43.728C188.397 44.192 187.869 44.56 187.229 44.832C186.589 45.104 185.901 45.24 185.165 45.24ZM186.125 43.152C186.525 43.152 186.941 43.056 187.373 42.864C187.821 42.656 188.197 42.376 188.501 42.024V39.264C187.269 39.312 186.277 39.528 185.525 39.912C184.789 40.296 184.421 40.856 184.421 41.592C184.421 42.632 184.989 43.152 186.125 43.152ZM198.064 45.24C197.024 45.24 196.232 44.944 195.688 44.352C195.16 43.76 194.896 43.048 194.896 42.216V35.256H193.096L193.336 33.096H194.896V30.36L197.584 30.072V33.096H200.392V35.256H197.584V40.968C197.584 41.672 197.624 42.16 197.704 42.432C197.784 42.688 197.952 42.856 198.208 42.936C198.48 43.016 198.96 43.056 199.648 43.056H200.368L200.128 45.24H198.064ZM207.996 45.24C206.62 45.24 205.444 44.96 204.468 44.4C203.508 43.84 202.78 43.088 202.284 42.144C201.788 41.184 201.54 40.12 201.54 38.952C201.54 37.832 201.764 36.816 202.212 35.904C202.676 34.976 203.348 34.24 204.228 33.696C205.124 33.152 206.172 32.88 207.372 32.88C208.428 32.88 209.34 33.104 210.108 33.552C210.892 33.984 211.484 34.584 211.884 35.352C212.3 36.12 212.508 37 212.508 37.992C212.508 38.504 212.452 38.992 212.34 39.456H204.324C204.468 40.688 204.892 41.584 205.596 42.144C206.316 42.704 207.204 42.984 208.26 42.984C209.556 42.984 210.732 42.688 211.788 42.096L211.98 44.328C210.764 44.936 209.436 45.24 207.996 45.24ZM209.772 37.632C209.772 36.928 209.572 36.336 209.172 35.856C208.772 35.376 208.164 35.136 207.348 35.136C205.796 35.136 204.82 35.968 204.42 37.632H209.772ZM224.203 38.136C225.099 36.776 225.723 35.72 226.075 34.968C226.443 34.216 226.627 33.512 226.627 32.856C226.627 32.12 226.419 31.536 226.003 31.104C225.587 30.672 225.011 30.456 224.275 30.456C222.883 30.456 221.523 31.12 220.195 32.448L219.859 29.616C221.315 28.448 222.947 27.864 224.755 27.864C225.731 27.864 226.563 28.072 227.251 28.488C227.955 28.888 228.483 29.432 228.835 30.12C229.187 30.808 229.363 31.576 229.363 32.424C229.363 33.4 229.155 34.376 228.739 35.352C228.339 36.312 227.635 37.56 226.627 39.096L224.443 42.408H229.963V45H219.739L224.203 38.136ZM239.667 45.336C238.243 45.336 236.995 44.968 235.923 44.232C234.867 43.48 234.043 42.432 233.451 41.088C232.875 39.744 232.587 38.2 232.587 36.456C232.587 34.776 232.883 33.288 233.475 31.992C234.067 30.68 234.899 29.664 235.971 28.944C237.043 28.224 238.275 27.864 239.667 27.864C241.075 27.864 242.315 28.224 243.387 28.944C244.459 29.664 245.283 30.672 245.859 31.968C246.451 33.264 246.747 34.76 246.747 36.456C246.747 38.2 246.451 39.744 245.859 41.088C245.283 42.432 244.459 43.48 243.387 44.232C242.331 44.968 241.091 45.336 239.667 45.336ZM239.667 42.84C240.979 42.84 242.011 42.304 242.763 41.232C243.515 40.16 243.891 38.568 243.891 36.456C243.891 34.456 243.507 32.936 242.739 31.896C241.971 30.856 240.947 30.336 239.667 30.336C238.387 30.336 237.355 30.856 236.571 31.896C235.803 32.936 235.419 34.456 235.419 36.456C235.419 38.552 235.795 40.144 236.547 41.232C237.315 42.304 238.355 42.84 239.667 42.84ZM253.734 38.136C254.63 36.776 255.254 35.72 255.606 34.968C255.974 34.216 256.158 33.512 256.158 32.856C256.158 32.12 255.95 31.536 255.534 31.104C255.118 30.672 254.542 30.456 253.806 30.456C252.414 30.456 251.054 31.12 249.726 32.448L249.39 29.616C250.846 28.448 252.478 27.864 254.286 27.864C255.262 27.864 256.094 28.072 256.782 28.488C257.486 28.888 258.014 29.432 258.366 30.12C258.718 30.808 258.894 31.576 258.894 32.424C258.894 33.4 258.686 34.376 258.27 35.352C257.87 36.312 257.166 37.56 256.158 39.096L253.974 42.408H259.494V45H249.27L253.734 38.136ZM269.198 45.336C267.774 45.336 266.526 44.968 265.454 44.232C264.398 43.48 263.574 42.432 262.982 41.088C262.406 39.744 262.118 38.2 262.118 36.456C262.118 34.776 262.414 33.288 263.006 31.992C263.598 30.68 264.43 29.664 265.502 28.944C266.574 28.224 267.806 27.864 269.198 27.864C270.606 27.864 271.846 28.224 272.918 28.944C273.99 29.664 274.814 30.672 275.39 31.968C275.982 33.264 276.278 34.76 276.278 36.456C276.278 38.2 275.982 39.744 275.39 41.088C274.814 42.432 273.99 43.48 272.918 44.232C271.862 44.968 270.622 45.336 269.198 45.336ZM269.198 42.84C270.51 42.84 271.542 42.304 272.294 41.232C273.046 40.16 273.422 38.568 273.422 36.456C273.422 34.456 273.038 32.936 272.27 31.896C271.502 30.856 270.478 30.336 269.198 30.336C267.918 30.336 266.886 30.856 266.102 31.896C265.334 32.936 264.95 34.456 264.95 36.456C264.95 38.552 265.326 40.144 266.078 41.232C266.846 42.304 267.886 42.84 269.198 42.84Z" fill="#FEFEFE"/>
<path d="M48.84 109.844C50.232 109.844 51.492 110.168 52.62 110.816C53.748 111.464 54.624 112.364 55.248 113.516C55.896 114.668 56.22 115.976 56.22 117.44C56.22 119.024 55.884 120.428 55.212 121.652C54.54 122.876 53.58 123.824 52.332 124.496C51.084 125.168 49.62 125.504 47.94 125.504C46.212 125.504 44.688 125.12 43.368 124.352C42.048 123.56 41.028 122.456 40.308 121.04C39.588 119.624 39.228 117.98 39.228 116.108C39.228 113.564 39.804 111.176 40.956 108.944C42.108 106.712 43.56 104.78 45.312 103.148C47.088 101.516 48.9 100.232 50.748 99.296L53.952 101.816C52.2 102.68 50.376 103.928 48.48 105.56C46.584 107.168 45.192 109.004 44.304 111.068C45.552 110.252 47.064 109.844 48.84 109.844ZM48.012 121.688C49.164 121.688 50.124 121.304 50.892 120.536C51.66 119.744 52.044 118.772 52.044 117.62C52.044 116.492 51.66 115.556 50.892 114.812C50.124 114.044 49.164 113.66 48.012 113.66C46.836 113.66 45.864 114.044 45.096 114.812C44.352 115.556 43.98 116.492 43.98 117.62C43.98 118.772 44.364 119.744 45.132 120.536C45.9 121.304 46.86 121.688 48.012 121.688ZM67.0748 109.16C69.5228 109.16 71.4908 109.88 72.9788 111.32C74.4908 112.736 75.2468 114.68 75.2468 117.152C75.2468 118.856 74.8628 120.332 74.0948 121.58C73.3508 122.828 72.3068 123.788 70.9628 124.46C69.6428 125.132 68.1188 125.468 66.3908 125.468C63.7508 125.468 61.4468 124.796 59.4788 123.452L60.5588 119.276C61.5188 119.876 62.4548 120.344 63.3668 120.68C64.2788 120.992 65.2628 121.148 66.3188 121.148C67.6868 121.148 68.7668 120.788 69.5588 120.068C70.3748 119.348 70.7828 118.376 70.7828 117.152C70.7828 115.832 70.3148 114.8 69.3788 114.056C68.4668 113.312 67.1588 112.94 65.4548 112.94C64.1108 112.94 62.5388 113.108 60.7388 113.444L62.3588 99.8H74.2388L73.9508 104.264H65.8148L65.2028 109.268C65.7788 109.196 66.4028 109.16 67.0748 109.16ZM82.2348 106.316C81.2268 106.988 80.1708 107.42 79.0668 107.612L78.6708 103.724C79.4628 103.556 80.3508 103.076 81.3348 102.284C82.3188 101.468 82.9788 100.64 83.3148 99.8H86.8428V125H82.2348V106.316Z" fill="#FEFEFE"/>
<path d="M21.22 149.2H22.7L22.92 150.82C23.4267 150.193 23.9067 149.733 24.36 149.44C24.8267 149.147 25.3133 149 25.82 149C25.98 149 26.1333 149.02 26.28 149.06L26.1 151.04C25.9267 151 25.7267 150.98 25.5 150.98C25.0067 150.98 24.54 151.093 24.1 151.32C23.66 151.533 23.34 151.787 23.14 152.08V159H21.22V149.2ZM31.9942 159.2C30.8742 159.2 29.9142 158.973 29.1142 158.52C28.3276 158.053 27.7276 157.427 27.3142 156.64C26.9009 155.853 26.6942 154.98 26.6942 154.02C26.6942 153.1 26.8809 152.26 27.2542 151.5C27.6409 150.727 28.1942 150.12 28.9142 149.68C29.6476 149.227 30.5076 149 31.4942 149C32.7476 149 33.7609 149.367 34.5342 150.1C35.3209 150.833 35.7142 151.847 35.7142 153.14C35.7142 153.473 35.6876 153.793 35.6342 154.1H28.5342C28.6542 155.367 29.0409 156.267 29.6942 156.8C30.3476 157.333 31.1876 157.6 32.2142 157.6C33.2409 157.6 34.1809 157.407 35.0342 157.02L35.2742 158.44C34.1409 158.947 33.0476 159.2 31.9942 159.2ZM33.8542 152.86C33.8542 152.153 33.6542 151.6 33.2542 151.2C32.8542 150.8 32.2542 150.6 31.4542 150.6C30.6809 150.6 30.0742 150.793 29.6342 151.18C29.1942 151.553 28.8809 152.113 28.6942 152.86H33.8542ZM41.4886 164C40.1019 164 38.9753 163.747 38.1086 163.24C37.2553 162.733 36.8286 162.013 36.8286 161.08C36.8286 160.053 37.3953 159.287 38.5286 158.78C37.8886 158.46 37.5686 158.047 37.5686 157.54C37.5686 156.9 37.9553 156.427 38.7286 156.12C38.1819 155.787 37.7619 155.333 37.4686 154.76C37.1753 154.187 37.0286 153.54 37.0286 152.82C37.0286 152.1 37.1886 151.453 37.5086 150.88C37.8419 150.293 38.3086 149.833 38.9086 149.5C39.5219 149.167 40.2419 149 41.0686 149C41.9486 149 42.7486 149.253 43.4686 149.76C44.1753 149.36 44.9886 149.16 45.9086 149.16H46.0686L45.8486 150.36H45.3886C45.2686 150.36 45.0953 150.373 44.8686 150.4C44.6419 150.427 44.4419 150.46 44.2686 150.5C44.5486 150.82 44.7619 151.18 44.9086 151.58C45.0553 151.98 45.1286 152.393 45.1286 152.82C45.1286 153.567 44.9619 154.24 44.6286 154.84C44.3086 155.427 43.8419 155.893 43.2286 156.24C42.6153 156.573 41.8953 156.74 41.0686 156.74C40.5886 156.74 40.1486 156.68 39.7486 156.56C39.4419 156.667 39.2886 156.84 39.2886 157.08C39.2886 157.4 39.6553 157.613 40.3886 157.72L43.0086 158.14C44.1019 158.313 44.9286 158.627 45.4886 159.08C46.0486 159.533 46.3286 160.16 46.3286 160.96C46.3286 161.96 45.8953 162.713 45.0286 163.22C44.1753 163.74 42.9953 164 41.4886 164ZM41.0686 155.3C41.8153 155.3 42.3886 155.08 42.7886 154.64C43.2019 154.187 43.4086 153.587 43.4086 152.84C43.4086 152.12 43.2019 151.54 42.7886 151.1C42.3886 150.66 41.8153 150.44 41.0686 150.44C40.3219 150.44 39.7486 150.66 39.3486 151.1C38.9486 151.54 38.7486 152.12 38.7486 152.84C38.7486 153.587 38.9486 154.187 39.3486 154.64C39.7486 155.08 40.3219 155.3 41.0686 155.3ZM41.6486 162.4C42.5686 162.4 43.2753 162.28 43.7686 162.04C44.2619 161.8 44.5086 161.453 44.5086 161C44.5086 160.653 44.3553 160.373 44.0486 160.16C43.7553 159.96 43.3086 159.8 42.7086 159.68L39.9086 159.2C39.5086 159.387 39.1819 159.613 38.9286 159.88C38.6753 160.16 38.5486 160.467 38.5486 160.8C38.5486 161.347 38.8219 161.747 39.3686 162C39.9153 162.267 40.6753 162.4 41.6486 162.4ZM47.4895 145H49.2895V147H47.4895V145ZM47.4895 149.2H49.2895V159H47.4895V149.2ZM54.5078 159.2C53.7345 159.2 53.0545 159.113 52.4678 158.94C51.8945 158.753 51.4545 158.553 51.1478 158.34L51.3678 156.6C51.6345 156.84 52.0411 157.067 52.5878 157.28C53.1478 157.493 53.7611 157.6 54.4278 157.6C55.0545 157.6 55.5345 157.493 55.8678 157.28C56.2145 157.067 56.3878 156.767 56.3878 156.38C56.3878 155.927 56.2011 155.587 55.8278 155.36C55.4545 155.12 54.9878 154.92 54.4278 154.76C53.8145 154.6 53.2945 154.433 52.8678 154.26C52.4545 154.073 52.0945 153.793 51.7878 153.42C51.4945 153.047 51.3478 152.553 51.3478 151.94C51.3478 151.1 51.6478 150.4 52.2478 149.84C52.8478 149.28 53.7745 149 55.0278 149C55.6011 149 56.0878 149.06 56.4878 149.18C56.8878 149.287 57.2878 149.44 57.6878 149.64L57.4678 151.28C57.1478 151.013 56.7945 150.807 56.4078 150.66C56.0211 150.5 55.5745 150.42 55.0678 150.42C54.4811 150.42 54.0145 150.533 53.6678 150.76C53.3345 150.973 53.1678 151.3 53.1678 151.74C53.1678 152.033 53.2478 152.273 53.4078 152.46C53.5678 152.633 53.7945 152.78 54.0878 152.9C54.3811 153.02 54.8345 153.173 55.4478 153.36C56.2078 153.587 56.8611 153.907 57.4078 154.32C57.9678 154.733 58.2478 155.387 58.2478 156.28C58.2478 157.08 57.9611 157.767 57.3878 158.34C56.8278 158.913 55.8678 159.2 54.5078 159.2ZM63.3891 159.2C62.5224 159.2 61.8757 158.973 61.4491 158.52C61.0357 158.067 60.8291 157.513 60.8291 156.86V150.6H59.1491L59.3091 149.2H60.8291V146.78L62.6291 146.6V149.2H65.2091V150.6H62.6291V155.76C62.6291 156.44 62.6691 156.907 62.7491 157.16C62.8291 157.413 62.9957 157.58 63.2491 157.66C63.5157 157.727 63.9957 157.76 64.6891 157.76H65.1491L65.0091 159.2H63.3891ZM66.7473 149.2H68.2273L68.4473 150.82C68.954 150.193 69.434 149.733 69.8873 149.44C70.354 149.147 70.8407 149 71.3473 149C71.5073 149 71.6607 149.02 71.8073 149.06L71.6273 151.04C71.454 151 71.254 150.98 71.0273 150.98C70.534 150.98 70.0673 151.093 69.6273 151.32C69.1873 151.533 68.8673 151.787 68.6673 152.08V159H66.7473V149.2ZM75.2188 159.2C74.3121 159.2 73.5788 158.933 73.0188 158.4C72.4721 157.867 72.1988 157.187 72.1988 156.36C72.1988 155.12 72.7854 154.233 73.9588 153.7C75.1321 153.167 76.4988 152.887 78.0588 152.86C78.0588 151.98 77.8854 151.387 77.5388 151.08C77.2054 150.76 76.6654 150.6 75.9188 150.6C75.5054 150.6 75.0921 150.667 74.6788 150.8C74.2654 150.92 73.8188 151.147 73.3388 151.48L73.0788 150.02C73.4788 149.713 73.9721 149.467 74.5588 149.28C75.1454 149.093 75.7588 149 76.3988 149C77.2388 149 77.9054 149.147 78.3988 149.44C78.9054 149.733 79.2721 150.22 79.4988 150.9C79.7388 151.58 79.8588 152.513 79.8588 153.7V155.7C79.8588 156.233 79.8788 156.64 79.9188 156.92C79.9721 157.187 80.0788 157.393 80.2388 157.54C80.3988 157.687 80.6454 157.76 80.9788 157.76H81.1588L80.8788 159.2H80.7388C80.1788 159.2 79.7388 159.147 79.4188 159.04C79.0988 158.933 78.8521 158.78 78.6788 158.58C78.5188 158.38 78.3654 158.107 78.2188 157.76C77.3921 158.72 76.3921 159.2 75.2188 159.2ZM75.5588 157.76C76.0388 157.76 76.4988 157.64 76.9388 157.4C77.3921 157.16 77.7654 156.84 78.0588 156.44V154.1C76.6188 154.153 75.5854 154.347 74.9588 154.68C74.3454 155 74.0388 155.527 74.0388 156.26C74.0388 156.767 74.1721 157.147 74.4388 157.4C74.7188 157.64 75.0921 157.76 75.5588 157.76ZM87.3881 149C90.0548 149 91.3881 150.533 91.3881 153.6V159H89.5881V153.6C89.5881 152.547 89.3881 151.787 88.9881 151.32C88.6015 150.84 87.9481 150.6 87.0281 150.6C86.4415 150.6 85.9081 150.707 85.4281 150.92C84.9481 151.133 84.5881 151.453 84.3481 151.88V159H82.5481V149.2H83.9481L84.1481 150.24C84.6681 149.773 85.1881 149.453 85.7081 149.28C86.2415 149.093 86.8015 149 87.3881 149ZM96.9438 159.2C96.0771 159.2 95.4304 158.973 95.0038 158.52C94.5904 158.067 94.3838 157.513 94.3838 156.86V150.6H92.7038L92.8638 149.2H94.3838V146.78L96.1838 146.6V149.2H98.7638V150.6H96.1838V155.76C96.1838 156.44 96.2238 156.907 96.3038 157.16C96.3838 157.413 96.5504 157.58 96.8038 157.66C97.0704 157.727 97.5504 157.76 98.2438 157.76H98.7038L98.5638 159.2H96.9438ZM103.082 159.2C102.309 159.2 101.629 159.113 101.042 158.94C100.469 158.753 100.029 158.553 99.722 158.34L99.942 156.6C100.209 156.84 100.615 157.067 101.162 157.28C101.722 157.493 102.335 157.6 103.002 157.6C103.629 157.6 104.109 157.493 104.442 157.28C104.789 157.067 104.962 156.767 104.962 156.38C104.962 155.927 104.775 155.587 104.402 155.36C104.029 155.12 103.562 154.92 103.002 154.76C102.389 154.6 101.869 154.433 101.442 154.26C101.029 154.073 100.669 153.793 100.362 153.42C100.069 153.047 99.922 152.553 99.922 151.94C99.922 151.1 100.222 150.4 100.822 149.84C101.422 149.28 102.349 149 103.602 149C104.175 149 104.662 149.06 105.062 149.18C105.462 149.287 105.862 149.44 106.262 149.64L106.042 151.28C105.722 151.013 105.369 150.807 104.982 150.66C104.595 150.5 104.149 150.42 103.642 150.42C103.055 150.42 102.589 150.533 102.242 150.76C101.909 150.973 101.742 151.3 101.742 151.74C101.742 152.033 101.822 152.273 101.982 152.46C102.142 152.633 102.369 152.78 102.662 152.9C102.955 153.02 103.409 153.173 104.022 153.36C104.782 153.587 105.435 153.907 105.982 154.32C106.542 154.733 106.822 155.387 106.822 156.28C106.822 157.08 106.535 157.767 105.962 158.34C105.402 158.913 104.442 159.2 103.082 159.2Z" fill="#FEFEFE"/>
<path d="M187.86 109.16C190.308 109.16 192.276 109.88 193.764 111.32C195.276 112.736 196.032 114.68 196.032 117.152C196.032 118.856 195.648 120.332 194.88 121.58C194.136 122.828 193.092 123.788 191.748 124.46C190.428 125.132 188.904 125.468 187.176 125.468C184.536 125.468 182.232 124.796 180.264 123.452L181.344 119.276C182.304 119.876 183.24 120.344 184.152 120.68C185.064 120.992 186.048 121.148 187.104 121.148C188.472 121.148 189.552 120.788 190.344 120.068C191.16 119.348 191.568 118.376 191.568 117.152C191.568 115.832 191.1 114.8 190.164 114.056C189.252 113.312 187.944 112.94 186.24 112.94C184.896 112.94 183.324 113.108 181.524 113.444L183.144 99.8H195.024L194.736 104.264H186.6L185.988 109.268C186.564 109.196 187.188 109.16 187.86 109.16ZM218.32 115.496V119.24H215.08V125H210.652V119.24H198.088L211.948 99.8H215.08V115.496H218.32ZM210.652 115.496V107.756L205.216 115.496H210.652Z" fill="#FEFEFE"/>
<path d="M152 159.2C151.227 159.2 150.547 159.113 149.96 158.94C149.387 158.753 148.947 158.553 148.64 158.34L148.86 156.6C149.127 156.84 149.533 157.067 150.08 157.28C150.64 157.493 151.253 157.6 151.92 157.6C152.547 157.6 153.027 157.493 153.36 157.28C153.707 157.067 153.88 156.767 153.88 156.38C153.88 155.927 153.693 155.587 153.32 155.36C152.947 155.12 152.48 154.92 151.92 154.76C151.307 154.6 150.787 154.433 150.36 154.26C149.947 154.073 149.587 153.793 149.28 153.42C148.987 153.047 148.84 152.553 148.84 151.94C148.84 151.1 149.14 150.4 149.74 149.84C150.34 149.28 151.267 149 152.52 149C153.093 149 153.58 149.06 153.98 149.18C154.38 149.287 154.78 149.44 155.18 149.64L154.96 151.28C154.64 151.013 154.287 150.807 153.9 150.66C153.513 150.5 153.067 150.42 152.56 150.42C151.973 150.42 151.507 150.533 151.16 150.76C150.827 150.973 150.66 151.3 150.66 151.74C150.66 152.033 150.74 152.273 150.9 152.46C151.06 152.633 151.287 152.78 151.58 152.9C151.873 153.02 152.327 153.173 152.94 153.36C153.7 153.587 154.353 153.907 154.9 154.32C155.46 154.733 155.74 155.387 155.74 156.28C155.74 157.08 155.453 157.767 154.88 158.34C154.32 158.913 153.36 159.2 152 159.2ZM165.541 149.2V159H163.941L163.741 157.92C163.421 158.36 163.041 158.687 162.601 158.9C162.175 159.1 161.648 159.2 161.021 159.2C159.848 159.2 158.948 158.847 158.321 158.14C157.708 157.42 157.401 156.34 157.401 154.9V149.2H159.201V154.4C159.201 155.467 159.381 156.267 159.741 156.8C160.115 157.333 160.695 157.6 161.481 157.6C161.948 157.6 162.381 157.507 162.781 157.32C163.195 157.133 163.515 156.86 163.741 156.5V149.2H165.541ZM172.81 149C173.69 149 174.463 149.233 175.13 149.7C175.81 150.167 176.33 150.793 176.69 151.58C177.05 152.353 177.23 153.193 177.23 154.1C177.23 155.033 177.03 155.893 176.63 156.68C176.243 157.453 175.71 158.067 175.03 158.52C174.363 158.973 173.623 159.2 172.81 159.2C172.21 159.2 171.63 159.08 171.07 158.84C170.51 158.587 170.076 158.24 169.77 157.8L169.57 159H167.97V144H169.77V150.34C170.13 149.927 170.576 149.6 171.11 149.36C171.656 149.12 172.223 149 172.81 149ZM172.59 157.6C173.43 157.6 174.103 157.267 174.61 156.6C175.13 155.92 175.39 155.087 175.39 154.1C175.39 153.087 175.13 152.253 174.61 151.6C174.103 150.933 173.43 150.6 172.59 150.6C171.763 150.6 171.07 150.907 170.51 151.52C169.95 152.12 169.67 152.98 169.67 154.1C169.67 155.26 169.943 156.133 170.49 156.72C171.05 157.307 171.75 157.6 172.59 157.6ZM190.523 149C193.03 149 194.283 150.407 194.283 153.22V159H192.483V153.24C192.483 152.32 192.303 151.653 191.943 151.24C191.583 150.813 190.997 150.6 190.183 150.6C188.45 150.6 187.583 151.507 187.583 153.32V159H185.783V153.6C185.783 152.48 185.583 151.7 185.183 151.26C184.797 150.82 184.23 150.6 183.483 150.6C182.897 150.6 182.377 150.707 181.923 150.92C181.47 151.133 181.123 151.453 180.883 151.88V159H179.083V149.2H180.483L180.683 150.24C181.177 149.8 181.67 149.487 182.163 149.3C182.67 149.1 183.21 149 183.783 149C185.277 149 186.33 149.653 186.943 150.96C187.623 149.653 188.817 149 190.523 149ZM196.622 145H198.422V147H196.622V145ZM196.622 149.2H198.422V159H196.622V149.2ZM203.641 159.2C202.867 159.2 202.187 159.113 201.601 158.94C201.027 158.753 200.587 158.553 200.281 158.34L200.501 156.6C200.767 156.84 201.174 157.067 201.721 157.28C202.281 157.493 202.894 157.6 203.561 157.6C204.187 157.6 204.667 157.493 205.001 157.28C205.347 157.067 205.521 156.767 205.521 156.38C205.521 155.927 205.334 155.587 204.961 155.36C204.587 155.12 204.121 154.92 203.561 154.76C202.947 154.6 202.427 154.433 202.001 154.26C201.587 154.073 201.227 153.793 200.921 153.42C200.627 153.047 200.481 152.553 200.481 151.94C200.481 151.1 200.781 150.4 201.381 149.84C201.981 149.28 202.907 149 204.161 149C204.734 149 205.221 149.06 205.621 149.18C206.021 149.287 206.421 149.44 206.821 149.64L206.601 151.28C206.281 151.013 205.927 150.807 205.541 150.66C205.154 150.5 204.707 150.42 204.201 150.42C203.614 150.42 203.147 150.533 202.801 150.76C202.467 150.973 202.301 151.3 202.301 151.74C202.301 152.033 202.381 152.273 202.541 152.46C202.701 152.633 202.927 152.78 203.221 152.9C203.514 153.02 203.967 153.173 204.581 153.36C205.341 153.587 205.994 153.907 206.541 154.32C207.101 154.733 207.381 155.387 207.381 156.28C207.381 157.08 207.094 157.767 206.521 158.34C205.961 158.913 205.001 159.2 203.641 159.2ZM211.922 159.2C211.149 159.2 210.469 159.113 209.882 158.94C209.309 158.753 208.869 158.553 208.562 158.34L208.782 156.6C209.049 156.84 209.455 157.067 210.002 157.28C210.562 157.493 211.175 157.6 211.842 157.6C212.469 157.6 212.949 157.493 213.282 157.28C213.629 157.067 213.802 156.767 213.802 156.38C213.802 155.927 213.615 155.587 213.242 155.36C212.869 155.12 212.402 154.92 211.842 154.76C211.229 154.6 210.709 154.433 210.282 154.26C209.869 154.073 209.509 153.793 209.202 153.42C208.909 153.047 208.762 152.553 208.762 151.94C208.762 151.1 209.062 150.4 209.662 149.84C210.262 149.28 211.189 149 212.442 149C213.015 149 213.502 149.06 213.902 149.18C214.302 149.287 214.702 149.44 215.102 149.64L214.882 151.28C214.562 151.013 214.209 150.807 213.822 150.66C213.435 150.5 212.989 150.42 212.482 150.42C211.895 150.42 211.429 150.533 211.082 150.76C210.749 150.973 210.582 151.3 210.582 151.74C210.582 152.033 210.662 152.273 210.822 152.46C210.982 152.633 211.209 152.78 211.502 152.9C211.795 153.02 212.249 153.173 212.862 153.36C213.622 153.587 214.275 153.907 214.822 154.32C215.382 154.733 215.662 155.387 215.662 156.28C215.662 157.08 215.375 157.767 214.802 158.34C214.242 158.913 213.282 159.2 211.922 159.2ZM217.423 145H219.223V147H217.423V145ZM217.423 149.2H219.223V159H217.423V149.2ZM225.941 159.2C224.941 159.2 224.075 158.98 223.341 158.54C222.608 158.087 222.048 157.473 221.661 156.7C221.275 155.927 221.081 155.06 221.081 154.1C221.081 153.14 221.275 152.273 221.661 151.5C222.048 150.727 222.608 150.12 223.341 149.68C224.075 149.227 224.941 149 225.941 149C226.928 149 227.788 149.227 228.521 149.68C229.268 150.12 229.835 150.727 230.221 151.5C230.608 152.273 230.801 153.14 230.801 154.1C230.801 155.06 230.608 155.927 230.221 156.7C229.835 157.473 229.268 158.087 228.521 158.54C227.788 158.98 226.928 159.2 225.941 159.2ZM225.941 157.6C226.901 157.6 227.641 157.293 228.161 156.68C228.695 156.067 228.961 155.207 228.961 154.1C228.961 152.993 228.695 152.133 228.161 151.52C227.641 150.907 226.901 150.6 225.941 150.6C224.981 150.6 224.235 150.907 223.701 151.52C223.181 152.133 222.921 152.993 222.921 154.1C222.921 155.207 223.181 156.067 223.701 156.68C224.235 157.293 224.981 157.6 225.941 157.6ZM237.498 149C240.164 149 241.498 150.533 241.498 153.6V159H239.698V153.6C239.698 152.547 239.498 151.787 239.098 151.32C238.711 150.84 238.058 150.6 237.138 150.6C236.551 150.6 236.018 150.707 235.538 150.92C235.058 151.133 234.698 151.453 234.458 151.88V159H232.658V149.2H234.058L234.258 150.24C234.778 149.773 235.298 149.453 235.818 149.28C236.351 149.093 236.911 149 237.498 149ZM246.609 159.2C245.836 159.2 245.156 159.113 244.569 158.94C243.996 158.753 243.556 158.553 243.249 158.34L243.469 156.6C243.736 156.84 244.143 157.067 244.689 157.28C245.249 157.493 245.863 157.6 246.529 157.6C247.156 157.6 247.636 157.493 247.969 157.28C248.316 157.067 248.489 156.767 248.489 156.38C248.489 155.927 248.303 155.587 247.929 155.36C247.556 155.12 247.089 154.92 246.529 154.76C245.916 154.6 245.396 154.433 244.969 154.26C244.556 154.073 244.196 153.793 243.889 153.42C243.596 153.047 243.449 152.553 243.449 151.94C243.449 151.1 243.749 150.4 244.349 149.84C244.949 149.28 245.876 149 247.129 149C247.703 149 248.189 149.06 248.589 149.18C248.989 149.287 249.389 149.44 249.789 149.64L249.569 151.28C249.249 151.013 248.896 150.807 248.509 150.66C248.123 150.5 247.676 150.42 247.169 150.42C246.583 150.42 246.116 150.533 245.769 150.76C245.436 150.973 245.269 151.3 245.269 151.74C245.269 152.033 245.349 152.273 245.509 152.46C245.669 152.633 245.896 152.78 246.189 152.9C246.483 153.02 246.936 153.173 247.549 153.36C248.309 153.587 248.963 153.907 249.509 154.32C250.069 154.733 250.349 155.387 250.349 156.28C250.349 157.08 250.063 157.767 249.489 158.34C248.929 158.913 247.969 159.2 246.609 159.2Z" fill="#FEFEFE"/>
<path d="M310.708 114.812C312.1 112.676 313.048 111.068 313.552 109.988C314.08 108.908 314.344 107.888 314.344 106.928C314.344 105.896 314.044 105.092 313.444 104.516C312.868 103.916 312.064 103.616 311.032 103.616C309.88 103.616 308.812 103.892 307.828 104.444C306.844 104.996 305.884 105.74 304.948 106.676L304.372 102.032C305.5 101.12 306.676 100.436 307.9 99.98C309.124 99.524 310.48 99.296 311.968 99.296C313.432 99.296 314.68 99.608 315.712 100.232C316.744 100.832 317.512 101.648 318.016 102.68C318.544 103.712 318.808 104.852 318.808 106.1C318.808 107.516 318.496 108.968 317.872 110.456C317.272 111.944 316.204 113.852 314.668 116.18L311.716 120.68H319.708V125H304.084L310.708 114.812ZM342.039 115.496V119.24H338.799V125H334.371V119.24H321.807L335.667 99.8H338.799V115.496H342.039ZM334.371 115.496V107.756L328.935 115.496H334.371ZM356.622 125.504C354.51 125.504 352.65 124.952 351.042 123.848C349.458 122.744 348.222 121.184 347.334 119.168C346.446 117.152 346.002 114.824 346.002 112.184C346.002 109.664 346.446 107.432 347.334 105.488C348.222 103.52 349.47 101.996 351.078 100.916C352.686 99.836 354.534 99.296 356.622 99.296C358.734 99.296 360.594 99.848 362.202 100.952C363.81 102.032 365.046 103.544 365.91 105.488C366.798 107.432 367.242 109.664 367.242 112.184C367.242 114.824 366.798 117.152 365.91 119.168C365.046 121.184 363.81 122.744 362.202 123.848C360.594 124.952 358.734 125.504 356.622 125.504ZM356.622 121.364C358.446 121.364 359.898 120.608 360.978 119.096C362.082 117.584 362.634 115.28 362.634 112.184C362.634 109.304 362.082 107.12 360.978 105.632C359.874 104.12 358.422 103.364 356.622 103.364C354.822 103.364 353.37 104.12 352.266 105.632C351.162 107.12 350.61 109.304 350.61 112.184C350.61 115.256 351.15 117.56 352.23 119.096C353.334 120.608 354.798 121.364 356.622 121.364ZM382.04 125.504C379.928 125.504 378.068 124.952 376.46 123.848C374.876 122.744 373.64 121.184 372.752 119.168C371.864 117.152 371.42 114.824 371.42 112.184C371.42 109.664 371.864 107.432 372.752 105.488C373.64 103.52 374.888 101.996 376.496 100.916C378.104 99.836 379.952 99.296 382.04 99.296C384.152 99.296 386.012 99.848 387.62 100.952C389.228 102.032 390.464 103.544 391.328 105.488C392.216 107.432 392.66 109.664 392.66 112.184C392.66 114.824 392.216 117.152 391.328 119.168C390.464 121.184 389.228 122.744 387.62 123.848C386.012 124.952 384.152 125.504 382.04 125.504ZM382.04 121.364C383.864 121.364 385.316 120.608 386.396 119.096C387.5 117.584 388.052 115.28 388.052 112.184C388.052 109.304 387.5 107.12 386.396 105.632C385.292 104.12 383.84 103.364 382.04 103.364C380.24 103.364 378.788 104.12 377.684 105.632C376.58 107.12 376.028 109.304 376.028 112.184C376.028 115.256 376.568 117.56 377.648 119.096C378.752 120.608 380.216 121.364 382.04 121.364Z" fill="#FEFEFE"/>
<path d="M298.24 159.28C296.307 159.28 294.853 158.74 293.88 157.66C292.92 156.567 292.44 155.033 292.44 153.06V145H294.34V152.54C294.34 154.073 294.613 155.293 295.16 156.2C295.707 157.107 296.733 157.56 298.24 157.56C299.747 157.56 300.773 157.107 301.32 156.2C301.867 155.28 302.14 154.06 302.14 152.54V145H304.04V153.06C304.04 155.033 303.553 156.567 302.58 157.66C301.62 158.74 300.173 159.28 298.24 159.28ZM311.073 159.28C310.246 159.28 309.406 159.187 308.553 159C307.699 158.827 307.013 158.62 306.493 158.38L306.753 156.36C307.419 156.68 308.173 156.96 309.013 157.2C309.853 157.44 310.686 157.56 311.513 157.56C312.446 157.56 313.166 157.393 313.673 157.06C314.193 156.713 314.453 156.2 314.453 155.52C314.453 155.013 314.319 154.593 314.053 154.26C313.799 153.913 313.419 153.627 312.913 153.4C312.419 153.16 311.726 152.907 310.833 152.64C309.926 152.373 309.173 152.087 308.573 151.78C307.973 151.473 307.486 151.053 307.113 150.52C306.753 149.987 306.573 149.313 306.573 148.5C306.573 147.367 307.006 146.453 307.873 145.76C308.753 145.067 309.986 144.72 311.573 144.72C312.426 144.72 313.233 144.813 313.993 145C314.766 145.187 315.439 145.413 316.013 145.68L315.813 147.7C315.066 147.26 314.346 146.94 313.653 146.74C312.959 146.54 312.239 146.44 311.493 146.44C310.626 146.44 309.933 146.6 309.413 146.92C308.906 147.24 308.653 147.733 308.653 148.4C308.653 148.853 308.766 149.227 308.993 149.52C309.233 149.813 309.573 150.067 310.013 150.28C310.453 150.48 311.066 150.7 311.853 150.94C313.426 151.42 314.599 151.993 315.373 152.66C316.146 153.313 316.533 154.22 316.533 155.38C316.533 156.607 316.073 157.567 315.153 158.26C314.233 158.94 312.873 159.28 311.073 159.28ZM318.752 145H323.932C325.292 145 326.499 145.28 327.552 145.84C328.606 146.387 329.426 147.193 330.012 148.26C330.599 149.313 330.892 150.56 330.892 152C330.892 153.44 330.599 154.693 330.012 155.76C329.426 156.813 328.606 157.62 327.552 158.18C326.499 158.727 325.292 159 323.932 159H318.752V145ZM323.932 157.28C325.492 157.28 326.692 156.807 327.532 155.86C328.386 154.9 328.812 153.613 328.812 152C328.812 150.387 328.386 149.107 327.532 148.16C326.692 147.2 325.492 146.72 323.932 146.72H320.652V157.28H323.932ZM346.076 144V159H344.476L344.276 157.8C343.942 158.253 343.509 158.6 342.976 158.84C342.442 159.08 341.876 159.2 341.276 159.2C340.449 159.2 339.696 158.973 339.016 158.52C338.336 158.067 337.796 157.453 337.396 156.68C337.009 155.907 336.816 155.053 336.816 154.12C336.816 153.213 336.996 152.367 337.356 151.58C337.729 150.793 338.256 150.167 338.936 149.7C339.616 149.233 340.396 149 341.276 149C341.862 149 342.416 149.107 342.936 149.32C343.456 149.533 343.902 149.86 344.276 150.3V144H346.076ZM341.596 157.6C342.076 157.6 342.536 157.48 342.976 157.24C343.416 156.987 343.776 156.6 344.056 156.08C344.336 155.56 344.476 154.907 344.476 154.12C344.476 153.387 344.336 152.753 344.056 152.22C343.776 151.687 343.409 151.287 342.956 151.02C342.516 150.74 342.062 150.6 341.596 150.6C340.689 150.6 339.969 150.933 339.436 151.6C338.916 152.253 338.656 153.093 338.656 154.12C338.656 155.107 338.922 155.933 339.456 156.6C339.989 157.267 340.702 157.6 341.596 157.6ZM352.77 159.2C351.77 159.2 350.903 158.98 350.17 158.54C349.436 158.087 348.876 157.473 348.49 156.7C348.103 155.927 347.91 155.06 347.91 154.1C347.91 153.14 348.103 152.273 348.49 151.5C348.876 150.727 349.436 150.12 350.17 149.68C350.903 149.227 351.77 149 352.77 149C353.756 149 354.616 149.227 355.35 149.68C356.096 150.12 356.663 150.727 357.05 151.5C357.436 152.273 357.63 153.14 357.63 154.1C357.63 155.06 357.436 155.927 357.05 156.7C356.663 157.473 356.096 158.087 355.35 158.54C354.616 158.98 353.756 159.2 352.77 159.2ZM352.77 157.6C353.73 157.6 354.47 157.293 354.99 156.68C355.523 156.067 355.79 155.207 355.79 154.1C355.79 152.993 355.523 152.133 354.99 151.52C354.47 150.907 353.73 150.6 352.77 150.6C351.81 150.6 351.063 150.907 350.53 151.52C350.01 152.133 349.75 152.993 349.75 154.1C349.75 155.207 350.01 156.067 350.53 156.68C351.063 157.293 351.81 157.6 352.77 157.6ZM364.326 149C366.992 149 368.326 150.533 368.326 153.6V159H366.526V153.6C366.526 152.547 366.326 151.787 365.926 151.32C365.539 150.84 364.886 150.6 363.966 150.6C363.379 150.6 362.846 150.707 362.366 150.92C361.886 151.133 361.526 151.453 361.286 151.88V159H359.486V149.2H360.886L361.086 150.24C361.606 149.773 362.126 149.453 362.646 149.28C363.179 149.093 363.739 149 364.326 149ZM372.938 159.2C372.031 159.2 371.298 158.933 370.738 158.4C370.191 157.867 369.918 157.187 369.918 156.36C369.918 155.12 370.504 154.233 371.678 153.7C372.851 153.167 374.218 152.887 375.778 152.86C375.778 151.98 375.604 151.387 375.258 151.08C374.924 150.76 374.384 150.6 373.638 150.6C373.224 150.6 372.811 150.667 372.398 150.8C371.984 150.92 371.538 151.147 371.058 151.48L370.798 150.02C371.198 149.713 371.691 149.467 372.278 149.28C372.864 149.093 373.478 149 374.118 149C374.958 149 375.624 149.147 376.118 149.44C376.624 149.733 376.991 150.22 377.218 150.9C377.458 151.58 377.578 152.513 377.578 153.7V155.7C377.578 156.233 377.598 156.64 377.638 156.92C377.691 157.187 377.798 157.393 377.958 157.54C378.118 157.687 378.364 157.76 378.698 157.76H378.878L378.598 159.2H378.458C377.898 159.2 377.458 159.147 377.138 159.04C376.818 158.933 376.571 158.78 376.398 158.58C376.238 158.38 376.084 158.107 375.938 157.76C375.111 158.72 374.111 159.2 372.938 159.2ZM373.278 157.76C373.758 157.76 374.218 157.64 374.658 157.4C375.111 157.16 375.484 156.84 375.778 156.44V154.1C374.338 154.153 373.304 154.347 372.678 154.68C372.064 155 371.758 155.527 371.758 156.26C371.758 156.767 371.891 157.147 372.158 157.4C372.438 157.64 372.811 157.76 373.278 157.76ZM383.452 159.2C382.585 159.2 381.938 158.973 381.512 158.52C381.098 158.067 380.892 157.513 380.892 156.86V150.6H379.212L379.372 149.2H380.892V146.78L382.692 146.6V149.2H385.272V150.6H382.692V155.76C382.692 156.44 382.732 156.907 382.812 157.16C382.892 157.413 383.058 157.58 383.312 157.66C383.578 157.727 384.058 157.76 384.752 157.76H385.212L385.072 159.2H383.452ZM391.432 159.2C390.312 159.2 389.352 158.973 388.552 158.52C387.765 158.053 387.165 157.427 386.752 156.64C386.338 155.853 386.132 154.98 386.132 154.02C386.132 153.1 386.318 152.26 386.692 151.5C387.078 150.727 387.632 150.12 388.352 149.68C389.085 149.227 389.945 149 390.932 149C392.185 149 393.198 149.367 393.972 150.1C394.758 150.833 395.152 151.847 395.152 153.14C395.152 153.473 395.125 153.793 395.072 154.1H387.972C388.092 155.367 388.478 156.267 389.132 156.8C389.785 157.333 390.625 157.6 391.652 157.6C392.678 157.6 393.618 157.407 394.472 157.02L394.712 158.44C393.578 158.947 392.485 159.2 391.432 159.2ZM393.292 152.86C393.292 152.153 393.092 151.6 392.692 151.2C392.292 150.8 391.692 150.6 390.892 150.6C390.118 150.6 389.512 150.793 389.072 151.18C388.632 151.553 388.318 152.113 388.132 152.86H393.292ZM405.646 144V159H404.046L403.846 157.8C403.513 158.253 403.079 158.6 402.546 158.84C402.013 159.08 401.446 159.2 400.846 159.2C400.019 159.2 399.266 158.973 398.586 158.52C397.906 158.067 397.366 157.453 396.966 156.68C396.579 155.907 396.386 155.053 396.386 154.12C396.386 153.213 396.566 152.367 396.926 151.58C397.299 150.793 397.826 150.167 398.506 149.7C399.186 149.233 399.966 149 400.846 149C401.433 149 401.986 149.107 402.506 149.32C403.026 149.533 403.473 149.86 403.846 150.3V144H405.646ZM401.166 157.6C401.646 157.6 402.106 157.48 402.546 157.24C402.986 156.987 403.346 156.6 403.626 156.08C403.906 155.56 404.046 154.907 404.046 154.12C404.046 153.387 403.906 152.753 403.626 152.22C403.346 151.687 402.979 151.287 402.526 151.02C402.086 150.74 401.633 150.6 401.166 150.6C400.259 150.6 399.539 150.933 399.006 151.6C398.486 152.253 398.226 153.093 398.226 154.12C398.226 155.107 398.493 155.933 399.026 156.6C399.559 157.267 400.273 157.6 401.166 157.6Z" fill="#FEFEFE"/>
<rect x="1" y="1" width="425" height="182" rx="7" stroke="#FEFEFE" stroke-width="2"/>
</svg>
