<svg width="410" height="538" viewBox="0 0 410 538" fill="none" xmlns="http://www.w3.org/2000/svg">
<circle cx="16" cy="522" r="14.5" stroke="#0042C6" stroke-width="3" stroke-linejoin="round" stroke-dasharray="10 5"/>
<path d="M376.994 448.645L397.563 473.158M375.022 471.186L399.535 450.617" stroke="#35C69B" stroke-width="3" stroke-linecap="round"/>
<path d="M177.799 77.8481C177.385 77.1306 177.631 76.2133 178.348 75.799L193.937 66.799C194.654 66.3848 195.571 66.6306 195.986 67.3481L204.986 82.9365C205.4 83.654 205.154 84.5714 204.437 84.9856L188.848 93.9856C188.131 94.3998 187.213 94.154 186.799 93.4365L177.799 77.8481Z" stroke="#242424" stroke-width="3"/>
<path d="M128.157 8.66115C129.245 7.57249 131.104 8.07058 131.503 9.55772L140.468 43.0184C140.867 44.5055 139.506 45.8663 138.019 45.4679L104.558 36.5021C103.071 36.1036 102.573 34.2447 103.662 33.156L128.157 8.66115Z" fill="#E55511"/>
<path d="M392 279V203C392 197.477 387.523 193 382 193H252.5" stroke="#F7AF1C" stroke-width="2"/>
</svg>
