<svg width="82" height="49" viewBox="0 0 82 49" fill="none" xmlns="http://www.w3.org/2000/svg">
<path d="M0.166016 48.6958V27.8459H7.12359C12.9768 27.8459 17.7808 32.5192 17.7808 38.2709C17.7808 44.0226 12.9768 48.6958 7.12359 48.6958H0.166016ZM7.12359 44.8522C10.8509 44.8522 13.8879 41.8934 13.8879 38.2709C13.8879 34.6484 10.8509 31.6896 7.12359 31.6896H4.03134V44.8522H7.12359Z" fill="#FEFEFE"/>
<path d="M21.6738 40.8702V27.8459H25.5668V40.8702C25.5115 43.193 27.3338 45.1287 29.653 45.184C31.9721 45.2393 33.9048 43.4142 33.96 41.0914C33.96 41.0085 33.96 40.9532 33.96 40.8702V27.8459H37.8806V40.8702C37.8806 43.0271 37.0247 45.0734 35.5062 46.5943C32.3311 49.7466 27.1957 49.7466 24.0482 46.5943C22.5297 45.0734 21.6738 43.0271 21.6738 40.8702Z" fill="#FEFEFE"/>
<path d="M57.6213 48.6958L49.8906 37.8008L46.5499 40.9808V48.6958H42.6846V27.8736H46.5499V35.6716L54.8603 27.8736H60.4374L52.8448 35.0909L62.4805 48.6958H57.6213Z" fill="#FEFEFE"/>
<path d="M65.4072 48.6958V27.8736H79.1015V31.662H69.3278V34.7314H77.8315V38.6304H69.3278V44.8245H78.8254V48.6958H65.4072Z" fill="#FEFEFE"/>
<path d="M12.3414 21.4859V11.3928H3.92054V21.4859H0V0.635986H3.92054V7.54908H12.3414V0.635986H16.2343V21.4859H12.3414Z" fill="#FEFEFE"/>
<path d="M45.5282 20.9605C44.2305 20.4074 43.0709 19.6055 42.077 18.61C41.0554 17.6146 40.2548 16.4532 39.7302 15.1258C39.1504 13.7985 38.8467 12.333 38.8467 10.895C38.9019 4.86682 43.7612 0 49.7524 0C53.176 0 56.4063 1.63149 58.4494 4.39673L58.9187 4.97743L55.7989 7.30023L55.3571 6.71953C54.0595 4.94977 51.9612 3.89898 49.7524 3.89898C45.8871 3.89898 42.7396 7.0237 42.7396 10.9227C42.7396 14.8217 45.8595 17.9464 49.7524 17.9464C51.9612 17.9464 54.0319 16.8956 55.3571 15.1258L55.7989 14.5728L58.8911 16.8679L58.4218 17.4486C56.3787 20.1862 53.176 21.8177 49.7524 21.8177C48.3167 21.8177 46.881 21.5135 45.5282 20.9605Z" fill="#FEFEFE"/>
<path d="M77.1411 21.4859L69.4104 10.5908L66.0697 13.7432V21.4859H62.1768V0.635986H66.0697V8.46161L74.3525 0.635986H79.9572L72.337 7.88091L82.0003 21.4859H77.1411Z" fill="#FEFEFE"/>
<path d="M30.2595 0.635986H26.7255L18.7188 21.4859H22.8878L25.0689 15.8724L28.4925 6.94073L31.9437 15.8724L34.0696 21.4859H38.2662L30.2595 0.635986Z" fill="#FEFEFE"/>
</svg>
