<svg width="423" height="449" viewBox="0 0 423 449" fill="none" xmlns="http://www.w3.org/2000/svg">
<path d="M386.231 431.176C386.96 432.936 388.028 434.534 389.374 435.88L399.274 445.78C399.469 445.975 399.786 445.975 399.981 445.78L419.78 425.981C419.975 425.786 419.975 425.469 419.78 425.274L409.88 415.374C408.534 414.028 406.936 412.96 405.176 412.231C403.417 411.502 401.532 411.127 399.627 411.127C397.723 411.127 395.838 411.502 394.079 412.231C392.319 412.96 390.721 414.028 389.374 415.374C388.028 416.721 386.96 418.319 386.231 420.079C385.503 421.838 385.127 423.723 385.127 425.627C385.127 427.532 385.503 429.417 386.231 431.176Z" fill="#35C69B" stroke="#FEFEFE" stroke-width="3" stroke-linecap="round" stroke-linejoin="round"/>
<path d="M21.3455 3.186L19.7525 10.6727M14.9735 33.1329L16.1683 27.5178M3.18607 14.9734L9.92412 16.4071M33.1329 21.3454L27.3307 20.1109M9.82452 5.31876L13.992 11.7391M26.4945 31.0001L22.327 24.5798M31.0002 9.82445L24.5798 13.9919M5.31882 26.4944L11.7392 22.3269" stroke="#E55511" stroke-width="3" stroke-linecap="round"/>
</svg>
