<svg width="930" height="295" viewBox="0 0 930 295" fill="none" xmlns="http://www.w3.org/2000/svg">
<circle cx="19" cy="19" r="19" fill="#F7AF1C"/>
<path d="M776 295V295C776 281.818 787.695 271.704 800.739 273.604L813.875 275.518C833.063 278.314 849.823 262.444 848.078 243.132L845.552 215.174C844.718 205.95 851.982 198 861.244 198V198C869.946 198 877 190.946 877 182.244V176" stroke="#35C69B" stroke-width="3" stroke-linecap="round" stroke-linejoin="round"/>
<path d="M47.0573 151.563C46.4542 153.019 45.5703 154.342 44.456 155.456L37.3849 162.527C36.6039 163.308 35.3375 163.308 34.5565 162.527L20.4144 148.385C19.6333 147.604 19.6333 146.337 20.4144 145.556L27.4854 138.485C28.5997 137.371 29.9226 136.487 31.3785 135.884C32.8344 135.281 34.3948 134.971 35.9707 134.971C37.5466 134.971 39.107 135.281 40.5629 135.884C42.0188 136.487 43.3417 137.371 44.456 138.485C45.5703 139.6 46.4542 140.922 47.0573 142.378C47.6603 143.834 47.9707 145.395 47.9707 146.971C47.9707 148.546 47.6603 150.107 47.0573 151.563Z" fill="#E55511"/>
<path d="M798.806 137.637C799.111 135.737 801.359 134.879 802.852 136.093L824.356 153.573C825.849 154.787 825.469 157.163 823.671 157.849L797.78 167.732C795.982 168.418 794.115 166.901 794.42 165.001L798.806 137.637Z" stroke="#E55511" stroke-width="3" stroke-linecap="round" stroke-linejoin="round"/>
<path d="M911.68 232.225L895.23 268.686M885.224 242.231L921.686 258.68M896.38 231.749L910.53 269.162M922.162 243.38L884.748 257.53" stroke="#F7AF1C" stroke-width="3" stroke-linecap="round"/>
<path d="M87.2642 72.5878L78.0885 94.7646M71.588 79.0884L93.7647 88.264" stroke="#0042C6" stroke-width="3" stroke-linecap="round"/>
</svg>
