<svg width="97" height="602" viewBox="0 0 97 602" fill="none" xmlns="http://www.w3.org/2000/svg">
<path d="M36.2323 581.749C35.9838 583.637 35.3659 585.457 34.4138 587.106L27.4138 599.231C27.2757 599.47 26.9699 599.552 26.7308 599.414L2.48205 585.414C2.2429 585.276 2.16097 584.97 2.29904 584.731L9.29904 572.606C10.2511 570.957 11.5187 569.512 13.0294 568.353C14.5401 567.194 16.2643 566.343 18.1035 565.851C19.9428 565.358 21.8612 565.232 23.749 565.48C25.6369 565.729 27.4574 566.347 29.1064 567.299C30.7555 568.251 32.2009 569.519 33.36 571.029C34.5192 572.54 35.3695 574.264 35.8623 576.104C36.3551 577.943 36.4809 579.861 36.2323 581.749Z" stroke="#E55511" stroke-width="3" stroke-linecap="round" stroke-linejoin="round"/>
<path d="M58.1213 21.9203C56.9497 20.7487 56.9497 18.8492 58.1213 17.6776L73.6777 2.12128C74.8492 0.949708 76.7487 0.949708 77.9203 2.12128L94.1838 18.3847C95.3553 19.5563 95.3553 21.4558 94.1838 22.6274L78.6274 38.1837C77.4558 39.3553 75.5563 39.3553 74.3848 38.1837L58.1213 21.9203Z" fill="#35C69B"/>
</svg>
